<?xml version="1.0" standalone="no"?>
<!DOCTYPE svg PUBLIC "-//W3C//DTD SVG 20010904//EN"
 "http://www.w3.org/TR/2001/REC-SVG-20010904/DTD/svg10.dtd">
<svg version="1.0" xmlns="http://www.w3.org/2000/svg"
 width="1400.000000pt" height="1400.000000pt" viewBox="0 0 1400.000000 1400.000000"
 preserveAspectRatio="xMidYMid meet">
<metadata>
Created by potrace 1.11, written by Peter Selinger 2001-2013
</metadata>
<g transform="translate(0.000000,1400.000000) scale(0.100000,-0.100000)"
fill="#000000" stroke="none">
<path d="M1580 11826 c0 -107 3 -202 6 -211 6 -14 8 -14 25 1 11 9 19 23 19
31 0 15 37 17 72 4 46 -18 89 -71 58 -71 -5 0 -10 -4 -10 -10 0 -5 9 -10 20
-10 11 0 20 7 20 15 0 8 9 15 20 15 20 0 65 -71 53 -84 -4 -3 1 -6 11 -6 11 0
16 7 14 18 -2 13 4 17 32 17 l35 0 6 -55 c4 -41 2 -64 -11 -91 -21 -46 -7 -72
37 -67 23 2 31 11 43 46 13 37 18 42 45 42 39 0 62 -18 68 -50 l3 -25 12 28
c9 21 18 27 41 27 15 0 34 -6 40 -14 6 -7 30 -16 52 -19 23 -3 51 -15 63 -26
13 -12 36 -21 54 -21 18 0 66 -16 108 -36 41 -19 92 -38 112 -41 23 -4 50 -18
74 -41 34 -32 120 -71 160 -72 9 0 23 -8 30 -18 27 -37 118 -79 118 -54 0 4
-21 26 -47 50 -27 23 -59 53 -73 67 -14 14 -36 25 -49 25 -12 0 -53 14 -89 31
-166 78 -214 99 -226 99 -7 0 -30 14 -51 30 -21 17 -46 30 -56 30 -46 0 -203
76 -229 110 -3 4 -22 10 -42 14 -21 4 -38 11 -38 17 0 19 26 19 65 -1 21 -11
49 -20 61 -20 13 0 29 -6 36 -13 7 -8 30 -17 51 -21 20 -4 37 -11 37 -15 0 -5
12 -11 28 -14 15 -3 44 -17 66 -32 26 -18 42 -23 50 -16 14 12 55 4 77 -16 19
-16 34 -17 99 -7 44 6 48 5 93 -40 26 -25 51 -46 55 -46 4 0 20 -13 35 -30 16
-16 34 -30 41 -30 26 0 76 -32 103 -66 41 -52 106 -114 119 -114 11 0 24 -22
24 -40 0 -17 -34 -20 -52 -4 -36 34 -28 6 9 -30 42 -39 62 -45 65 -18 0 9 2
22 2 29 2 24 17 26 41 3 14 -13 25 -29 25 -37 0 -7 8 -13 18 -13 10 0 29 -12
43 -26 28 -31 93 -74 111 -74 7 0 40 -14 73 -30 33 -16 68 -30 78 -30 12 0 17
-8 17 -31 0 -26 5 -33 38 -45 21 -9 47 -30 60 -49 26 -41 83 -71 140 -74 18
-1 22 -7 22 -31 0 -31 1 -32 73 -86 26 -19 56 -53 67 -74 16 -32 26 -40 48
-40 15 0 34 -6 41 -12 6 -7 20 -13 29 -14 63 -3 152 -35 152 -55 0 -7 -10 -9
-27 -5 -39 10 -62 14 -105 21 -24 4 -38 11 -38 20 0 10 -11 15 -33 15 -18 0
-41 6 -52 14 -11 7 -33 16 -49 20 -16 4 -56 34 -89 67 -33 32 -67 59 -75 59
-8 0 -29 12 -47 28 -56 47 -69 57 -97 69 -15 7 -34 23 -43 37 -9 14 -32 30
-51 36 -19 6 -34 18 -34 25 0 19 -28 34 -51 28 -28 -8 -23 -21 16 -44 19 -12
35 -29 35 -39 0 -10 11 -25 25 -34 14 -9 24 -20 24 -24 -3 -20 2 -33 11 -27 6
3 10 -2 10 -12 0 -10 5 -25 10 -33 9 -13 12 -13 24 3 8 10 20 15 30 11 20 -8
21 -44 1 -44 -18 0 -19 -12 -3 -28 8 -8 5 -16 -13 -31 -23 -19 -24 -20 -5 -34
19 -14 19 -15 -6 -31 -17 -11 -55 -18 -114 -21 -142 -8 -391 -34 -435 -45 -22
-6 -50 -8 -62 -4 -34 12 -69 4 -104 -22 -18 -13 -54 -29 -81 -34 -27 -5 -59
-13 -73 -19 -57 -23 -356 -102 -524 -138 -38 -8 -86 -23 -105 -33 -19 -10 -51
-21 -70 -25 -19 -4 -73 -15 -120 -25 -47 -11 -123 -26 -170 -35 -47 -8 -107
-20 -133 -26 l-49 -11 5 -90 c3 -50 10 -95 16 -101 6 -6 11 -20 11 -31 1 -19
2 -19 14 3 7 13 11 32 9 41 -3 11 4 24 18 33 18 13 20 19 10 30 -9 12 -6 17
20 26 18 6 39 11 48 11 14 0 14 -2 1 -10 -8 -5 -10 -10 -5 -10 6 0 3 -5 -5
-10 -11 -7 -6 -10 21 -10 20 0 42 -7 49 -15 11 -13 15 -12 31 9 11 13 19 29
19 35 0 6 5 11 10 11 6 0 10 -7 10 -15 0 -8 -3 -15 -8 -15 -9 0 -34 -68 -34
-95 -1 -11 2 -36 6 -55 3 -19 4 -29 0 -22 -9 19 -20 14 -32 -13 -15 -33 -15
-35 3 -35 8 0 15 -4 15 -10 0 -5 7 -10 15 -10 15 0 19 20 16 80 -1 14 7 36 17
49 l19 23 20 -21 c20 -21 20 -21 38 -1 26 28 13 53 -21 40 -33 -13 -39 -8 -22
19 8 13 19 19 30 15 15 -4 17 -1 12 25 -6 27 -3 32 22 42 44 17 83 15 98 -6 8
-11 12 -25 9 -32 -8 -19 14 -16 36 6 10 10 24 20 32 23 10 3 7 13 -11 37 l-23
33 39 34 c48 41 108 53 152 30 18 -9 32 -25 34 -38 5 -35 52 -32 55 2 0 14 2
34 2 45 1 12 4 16 9 9 22 -33 76 -20 126 31 28 28 39 30 85 14 35 -12 61 0 61
31 0 23 31 50 58 50 17 0 22 -6 22 -25 0 -35 31 -32 52 5 19 33 35 38 44 15 9
-23 42 -18 46 7 6 40 154 81 184 51 9 -9 19 -12 22 -7 22 31 149 56 276 56 33
-1 61 6 83 19 26 16 41 19 85 13 29 -4 67 -12 83 -19 23 -9 43 -9 89 0 76 15
416 8 469 -10 26 -9 49 -10 79 -4 31 7 53 6 92 -7 65 -21 89 -41 82 -70 -6
-24 13 -38 39 -27 14 5 14 8 -1 24 -10 11 -14 22 -11 25 13 13 59 6 71 -12 12
-16 18 -17 52 -6 40 12 54 9 54 -13 0 -13 20 -25 53 -31 12 -3 17 3 17 21 0
33 40 43 93 24 50 -18 64 -39 51 -76 -13 -37 -64 -44 -105 -14 l-28 21 -7 -38
c-3 -20 -12 -47 -20 -59 -21 -33 -18 -52 6 -46 15 4 20 0 20 -17 0 -12 -7 -28
-15 -36 -17 -18 -18 -24 -6 -43 7 -11 13 -9 32 10 13 13 23 27 22 31 -2 4 4 5
13 1 9 -3 27 6 45 23 l30 29 49 -54 c28 -30 49 -59 48 -65 -1 -6 1 -23 5 -37
7 -26 9 -27 72 -24 39 2 63 0 60 -6 -4 -5 -17 -9 -29 -9 -19 0 -25 -7 -28 -30
-5 -36 7 -50 43 -50 23 0 28 -5 31 -27 2 -20 9 -29 26 -31 12 -2 22 -8 22 -14
0 -6 8 -16 17 -23 15 -11 15 -14 -3 -33 -10 -11 -28 -22 -39 -24 -14 -2 -21
-14 -26 -40 -8 -50 16 -60 31 -12 12 36 27 44 36 19 4 -10 13 -13 25 -10 11 4
19 2 19 -4 0 -6 -8 -11 -17 -11 -17 -1 -17 -1 0 -14 9 -7 17 -17 17 -21 0 -4
-6 -2 -13 4 -15 12 -27 5 -27 -15 0 -8 6 -11 16 -7 8 3 25 -4 40 -17 l24 -23
0 24 c0 14 -5 30 -11 36 -18 18 6 25 56 18 24 -4 50 -13 56 -21 16 -20 36 -17
49 5 17 33 12 44 -16 37 -35 -9 -176 58 -168 79 4 8 8 15 10 15 9 0 90 -56
100 -69 10 -12 19 -12 60 -1 27 7 53 17 59 21 15 14 25 10 25 -10 0 -10 11
-26 25 -35 14 -9 25 -25 25 -36 0 -32 28 -23 35 11 7 32 21 34 39 6 16 -25 -4
-69 -36 -78 -16 -4 -30 -3 -34 2 -3 5 -16 9 -29 9 -13 0 -27 5 -30 10 -3 6
-17 10 -31 10 -28 0 -32 -25 -13 -79 11 -31 12 -31 36 -16 20 13 27 14 40 4 8
-7 29 -12 47 -11 25 2 42 -6 76 -38 24 -22 54 -43 66 -46 18 -5 23 -15 28 -57
3 -29 6 -63 6 -77 1 -14 5 -48 11 -77 12 -63 36 -74 59 -28 22 43 56 41 86 -6
l23 -37 -25 -33 c-28 -38 -25 -90 8 -124 18 -19 20 -19 29 -2 12 21 35 22 55
2 22 -22 39 -19 58 10 18 28 41 33 49 11 3 -8 2 -42 -3 -76 -5 -34 -7 -79 -4
-99 3 -26 0 -42 -11 -51 -17 -14 -20 -51 -5 -66 5 -5 12 -37 14 -69 5 -86 16
-123 36 -128 13 -3 18 -15 18 -52 1 -26 -3 -56 -9 -67 -6 -11 -14 -41 -18 -69
-8 -49 -8 -49 36 -86 24 -20 70 -47 103 -59 34 -12 77 -33 98 -46 20 -14 55
-36 77 -49 22 -12 43 -27 46 -32 8 -11 38 -6 85 14 17 7 42 9 58 5 22 -5 26
-11 21 -27 -4 -13 0 -28 11 -40 10 -11 18 -29 19 -40 2 -18 -3 -20 -48 -17
-58 3 -73 -13 -28 -31 24 -10 34 -10 60 3 17 9 31 14 31 11 0 -3 9 -1 21 5 28
15 61 -13 58 -50 -1 -14 3 -38 10 -54 11 -28 4 -45 -21 -46 -10 0 -30 -68 -23
-80 9 -15 35 -12 35 4 0 15 28 42 36 34 5 -5 -7 -36 -31 -78 -10 -17 -24 -25
-46 -26 -17 -1 -35 -7 -39 -14 -5 -9 -9 -9 -14 -1 -4 6 -22 11 -41 11 -26 0
-34 -5 -39 -24 -8 -33 2 -54 27 -58 36 -6 68 13 74 44 6 32 18 37 20 8 1 -11
-2 -20 -8 -20 -5 0 -9 -16 -9 -36 0 -25 -3 -33 -12 -28 -7 4 -4 -2 6 -15 11
-12 25 -20 32 -17 16 6 38 -20 29 -34 -3 -5 4 -14 17 -19 34 -13 54 -39 40
-53 -16 -16 2 -44 33 -52 14 -4 25 -13 25 -22 0 -8 20 -36 45 -62 76 -79 99
-113 124 -181 21 -55 25 -85 26 -176 1 -133 -2 -155 -24 -155 -40 1 -46 16
-52 132 -8 158 -39 211 -107 187 -39 -13 -43 -25 -49 -129 -4 -69 -1 -96 16
-144 34 -95 30 -111 -44 -194 -67 -75 -110 -145 -100 -162 14 -22 48 -7 90 37
25 26 48 55 51 65 3 10 9 18 13 18 5 0 14 14 21 30 20 49 60 35 60 -21 0 -32
-53 -120 -81 -135 -15 -7 -29 -22 -31 -32 -3 -11 -18 -21 -36 -25 -17 -4 -39
-14 -49 -24 -21 -20 -139 -63 -174 -63 -51 0 -94 20 -111 50 -20 36 -46 49
-58 29 -5 -7 -12 -10 -17 -6 -4 5 -3 11 3 15 13 10 16 201 4 291 -12 84 -1
168 30 236 10 22 26 58 35 81 10 23 29 48 46 58 19 11 28 23 25 32 -7 17 12
53 36 72 23 17 23 29 -2 37 -42 13 -12 75 36 75 22 0 24 3 19 23 -4 12 -13 32
-20 43 -10 16 -11 24 -2 33 8 8 8 11 0 11 -7 0 -14 8 -17 18 -4 11 -18 18 -38
19 -18 2 -37 8 -43 15 -5 7 -27 21 -47 30 -25 12 -42 29 -52 53 l-15 35 -35
-17 c-42 -21 -46 -32 -11 -25 30 5 42 -17 25 -47 -15 -29 -27 -26 -49 9 -10
16 -20 27 -23 24 -4 -3 -25 7 -48 22 -39 26 -41 29 -35 66 4 20 2 53 -4 71 -8
25 -9 42 -1 62 l11 28 15 -21 c8 -13 19 -20 24 -17 4 3 13 -2 20 -10 7 -8 16
-12 21 -9 5 3 9 -2 9 -10 0 -19 39 -21 63 -3 26 19 11 57 -23 57 -15 0 -44 11
-64 25 -25 17 -36 20 -36 11 0 -8 -10 -16 -21 -19 -16 -4 -32 5 -62 34 -39 37
-40 40 -24 57 16 15 19 15 27 2 7 -11 10 -11 10 -2 0 7 5 10 10 7 6 -3 10 -15
10 -26 0 -25 20 -25 27 1 3 11 11 20 18 20 6 0 17 11 23 25 14 31 0 40 -49 33
-29 -4 -33 -1 -50 39 -15 34 -23 43 -43 43 -29 0 -46 -25 -46 -70 0 -18 -6
-33 -15 -36 -22 -9 -19 -44 3 -44 20 0 42 -18 42 -35 0 -6 -20 -33 -45 -62
-25 -28 -45 -57 -45 -63 0 -18 34 -57 46 -53 13 4 37 -54 28 -68 -3 -5 -18 -8
-32 -7 -21 2 -26 -1 -24 -15 2 -10 -4 -29 -12 -42 -9 -14 -16 -33 -16 -45 0
-12 -7 -20 -17 -20 -22 0 -58 -29 -66 -52 -9 -26 -32 -22 -51 7 -14 21 -20 23
-36 15 -28 -15 -60 19 -60 66 0 31 3 35 23 32 20 -3 22 2 25 46 3 39 -2 55
-22 85 -14 20 -26 43 -26 50 0 19 -29 71 -40 71 -5 0 -12 -11 -16 -24 -3 -14
-13 -27 -21 -30 -9 -4 -13 -14 -10 -26 4 -14 0 -20 -12 -20 -15 0 -19 12 -24
67 -4 41 -3 71 4 79 7 9 7 19 0 33 -9 16 -23 21 -68 23 -55 3 -59 5 -85 45
-22 32 -26 46 -19 64 6 19 3 29 -18 50 -15 14 -37 29 -49 33 -19 6 -25 1 -42
-36 -11 -24 -20 -54 -20 -68 0 -15 -4 -30 -9 -35 -5 -6 -28 -47 -51 -93 -46
-91 -79 -129 -159 -182 -28 -19 -59 -47 -67 -62 -13 -26 -13 -28 5 -28 24 0
45 -25 37 -45 -7 -20 -36 -31 -45 -17 -4 7 -21 10 -39 8 -19 -3 -32 0 -32 6 0
6 -8 4 -18 -5 -10 -10 -34 -17 -53 -17 -30 0 -102 -30 -179 -75 -14 -8 -37
-15 -51 -15 -15 0 -46 -9 -70 -19 -30 -14 -49 -17 -65 -10 -19 7 -26 4 -35
-12 -13 -25 0 -44 38 -53 22 -6 25 -11 19 -36 -3 -18 -1 -30 5 -30 6 0 9 -12
7 -27 -2 -22 3 -30 37 -47 27 -14 41 -29 43 -45 4 -24 5 -24 73 -9 24 5 24
-49 -1 -62 -17 -9 -25 -7 -47 9 -37 30 -68 27 -95 -9 -29 -40 -38 -38 -38 10
0 26 -5 40 -12 40 -24 -1 -48 -27 -48 -53 0 -34 -17 -44 -25 -15 -3 13 -11 39
-17 59 -9 32 -8 40 13 68 19 26 21 35 11 49 -7 9 -17 28 -23 42 -6 14 -15 33
-20 42 -5 10 -9 24 -9 32 0 18 -66 15 -97 -4 -30 -19 -54 0 -33 25 7 9 16 33
19 53 6 35 8 37 48 40 l41 3 7 57 c19 151 50 254 86 287 16 14 29 34 29 44 0
25 29 141 41 163 9 17 49 153 63 213 8 34 50 83 83 96 20 7 22 15 20 73 -1 60
5 87 18 74 3 -3 6 -26 7 -51 1 -58 11 -76 35 -61 13 8 19 27 21 73 3 59 4 61
30 61 16 0 33 5 39 11 8 8 17 8 30 0 14 -7 23 -7 30 0 7 7 10 2 10 -17 0 -18
-6 -28 -19 -32 -29 -7 -15 -27 20 -29 38 -2 61 18 69 59 7 35 37 50 102 52 38
1 47 5 61 31 9 17 20 52 24 78 7 44 6 48 -18 57 -14 5 -27 14 -27 20 -1 5 -2
13 -3 18 0 4 -25 36 -54 72 -29 36 -65 79 -78 96 -14 18 -43 37 -67 45 -23 7
-55 21 -72 30 -16 9 -65 20 -107 23 -71 6 -116 19 -174 47 -16 8 -29 7 -52 -5
-44 -23 -76 -20 -111 10 -26 22 -29 28 -18 45 7 11 45 38 85 60 50 28 72 45
72 59 0 10 9 22 20 25 26 8 25 27 -2 53 -19 16 -30 19 -58 13 -34 -7 -39 -13
-56 -78 -2 -7 -11 -13 -20 -13 -26 0 -102 -60 -115 -91 -7 -17 -22 -32 -36
-35 -33 -9 -48 14 -26 38 8 9 13 25 9 33 -8 22 -41 14 -42 -10 -2 -34 -3 -36
-24 -25 -17 9 -27 5 -60 -21 -22 -18 -40 -37 -40 -43 0 -18 -77 -76 -99 -76
-11 0 -42 -13 -68 -30 -26 -16 -57 -30 -69 -30 -12 0 -41 -18 -63 -39 -23 -22
-49 -41 -58 -43 -10 -2 -24 -17 -32 -33 -8 -17 -26 -46 -41 -65 -15 -19 -33
-52 -41 -72 -7 -21 -16 -38 -19 -38 -13 0 -30 -52 -30 -89 0 -22 -7 -73 -16
-115 -13 -63 -14 -89 -4 -148 17 -109 48 -220 70 -250 11 -15 20 -38 20 -52 0
-25 47 -134 70 -161 21 -25 31 -6 14 27 -11 21 -18 68 -21 142 -3 61 -9 129
-13 151 -7 33 -6 43 10 60 24 26 47 175 40 265 l-5 65 -32 -3 c-29 -3 -33 0
-33 20 1 32 65 92 122 113 53 20 66 40 42 66 -16 18 -16 19 -1 19 10 0 17 -5
17 -11 0 -7 10 -9 28 -5 15 4 47 8 72 10 25 1 51 6 59 10 7 5 30 8 51 8 53 -1
68 19 41 54 -19 24 -19 29 -7 53 8 14 17 34 20 44 3 10 15 17 28 17 13 0 34 7
47 16 13 10 44 19 68 21 25 2 53 8 63 13 21 11 130 -4 169 -24 18 -9 53 -12
117 -9 85 4 94 3 160 -27 38 -18 83 -34 101 -37 44 -7 58 -53 17 -53 -9 0 -41
-22 -71 -49 l-55 -49 -33 19 c-47 28 -69 17 -61 -31 6 -41 -2 -53 -46 -64 -22
-5 -30 -1 -44 22 -15 27 -21 29 -78 29 -33 1 -69 -3 -78 -8 -12 -6 -25 -6 -39
1 -24 13 -125 16 -185 6 -35 -6 -45 -4 -60 12 -13 14 -33 20 -66 20 -44 1 -48
-1 -48 -23 0 -33 32 -105 46 -105 6 0 19 -9 29 -20 15 -16 16 -25 7 -44 -14
-32 -72 -46 -87 -21 -31 54 -38 57 -80 43 -33 -11 -40 -18 -46 -48 -8 -39 -2
-53 40 -99 17 -18 31 -37 31 -42 0 -5 9 -9 20 -9 11 0 20 4 20 8 0 4 17 14 38
21 48 17 62 29 62 52 0 11 14 26 33 35 17 10 26 19 20 21 -7 3 -13 12 -13 22
0 46 69 57 96 16 9 -14 14 -32 10 -40 -6 -18 5 -20 21 -4 17 17 33 2 33 -30 0
-15 6 -39 13 -54 12 -27 27 -36 27 -16 0 6 9 9 20 6 14 -3 29 4 47 24 33 34
52 36 76 9 9 -11 24 -20 33 -20 12 0 15 -6 9 -22 -3 -13 -11 -42 -16 -65 -8
-33 -17 -45 -44 -57 -19 -9 -47 -27 -62 -40 -21 -17 -41 -23 -80 -24 -29 0
-69 -8 -88 -18 -34 -16 -37 -16 -55 1 -11 10 -20 26 -20 37 0 11 -7 18 -19 18
-10 0 -32 3 -50 6 -27 6 -32 3 -41 -20 -5 -14 -16 -26 -25 -26 -8 0 -15 -4
-15 -9 0 -5 9 -7 20 -4 16 4 20 0 20 -21 0 -15 -8 -31 -20 -38 -13 -9 -20 -24
-20 -46 0 -18 -7 -43 -15 -55 -14 -21 -12 -27 21 -77 59 -90 57 -129 -9 -130
-28 0 -31 3 -41 53 -4 17 -13 27 -25 27 -16 0 -17 -5 -10 -42 4 -24 8 -47 9
-51 0 -4 15 -14 34 -22 32 -14 34 -18 41 -77 8 -73 18 -94 44 -103 27 -8 69
-91 54 -106 -13 -13 -54 -15 -97 -4 -27 7 -29 6 -23 -15 3 -13 -3 -76 -14
-139 -27 -159 -30 -427 -6 -526 47 -186 59 -215 93 -215 23 0 24 -3 18 -40 -5
-31 -3 -41 9 -46 19 -7 41 -59 34 -78 -3 -7 -1 -18 4 -23 5 -5 19 -29 32 -54
21 -43 69 -81 83 -66 4 4 0 15 -9 24 -8 10 -19 31 -23 47 -4 16 -18 45 -31 64
-12 19 -23 42 -23 51 0 9 -9 34 -20 56 -11 22 -20 49 -20 62 0 13 -10 29 -25
39 -22 14 -24 21 -21 80 2 45 -1 64 -10 64 -14 0 -24 23 -24 57 0 37 23 23 34
-20 5 -20 15 -37 22 -37 17 0 23 -22 10 -42 -17 -28 13 -52 47 -39 44 17 60
71 21 71 -8 0 -19 10 -24 23 -7 17 -9 18 -9 5 -1 -10 -5 -18 -11 -18 -13 0
-13 3 2 35 7 16 8 29 2 33 -20 15 -44 72 -44 105 0 19 -7 54 -16 78 -21 59 -5
213 21 202 8 -2 11 -12 8 -20 -5 -11 -3 -14 6 -9 7 5 11 24 10 45 -1 20 2 44
6 55 6 13 3 21 -8 28 -20 11 -22 34 -4 41 19 7 107 -22 113 -38 3 -7 -1 -26
-10 -43 -8 -16 -14 -38 -14 -48 1 -10 -2 -44 -6 -75 -6 -48 -4 -59 15 -83 l23
-29 -23 -18 c-28 -23 -22 -54 9 -44 28 9 59 -11 53 -34 -7 -26 15 -37 35 -18
14 15 17 14 29 -10 12 -23 12 -28 -2 -35 -17 -10 -21 -73 -5 -83 5 -3 7 -12 4
-19 -3 -7 6 -21 20 -30 34 -22 33 -35 -4 -47 -37 -13 -39 -32 -5 -47 15 -7 25
-20 25 -32 0 -12 7 -35 16 -52 10 -19 14 -42 10 -63 -5 -24 0 -41 19 -69 14
-20 25 -49 26 -64 0 -18 11 -35 31 -51 28 -22 33 -23 65 -12 38 14 53 6 53
-30 0 -24 37 -53 68 -54 24 0 27 -4 30 -40 2 -22 9 -45 16 -50 8 -6 22 -39 32
-74 17 -62 17 -64 -2 -78 -10 -8 -28 -12 -39 -9 -12 3 -46 8 -78 12 -62 7 -79
21 -81 62 -1 21 -7 28 -26 30 -13 2 -33 10 -44 18 -11 8 -33 14 -47 14 -23 0
-31 9 -57 64 -23 49 -36 65 -57 70 -23 6 -26 11 -21 31 4 15 2 25 -4 25 -14 0
-30 -44 -30 -85 0 -50 -24 -60 -108 -45 -37 6 -92 20 -122 30 -30 10 -82 23
-115 30 -33 7 -71 18 -85 26 -14 7 -56 17 -95 22 -80 11 -280 65 -343 93 -23
10 -52 19 -63 19 -11 0 -32 6 -47 14 -15 8 -48 17 -72 19 -25 3 -74 14 -110
25 -36 11 -112 29 -170 41 -58 13 -152 33 -210 46 -58 13 -143 31 -190 40 -92
17 -155 31 -210 45 -153 39 -188 49 -213 59 -16 6 -61 18 -100 27 -40 8 -101
25 -137 36 -106 33 -126 38 -182 48 -29 5 -63 12 -75 16 -22 6 -23 4 -23 -50
0 -55 0 -56 29 -56 16 0 34 -7 41 -15 9 -11 32 -15 79 -15 48 0 80 -6 112 -21
24 -12 63 -24 87 -27 26 -3 42 -10 42 -18 0 -15 63 -30 80 -19 6 3 24 4 40 0
23 -5 29 -11 27 -28 -2 -21 2 -22 74 -22 49 0 81 -5 92 -14 22 -17 15 -27 -25
-36 l-33 -7 35 -13 c19 -7 52 -14 73 -14 31 -1 40 3 44 19 3 11 9 20 12 20 23
0 131 -24 156 -35 17 -7 47 -10 68 -8 24 4 46 0 62 -11 14 -9 43 -18 66 -20
23 -3 46 -9 52 -15 6 -6 23 -11 38 -11 15 0 40 -5 56 -11 15 -6 65 -17 109
-24 45 -7 103 -23 129 -34 26 -12 56 -21 66 -21 10 0 21 -4 24 -10 3 -5 15
-10 27 -10 26 0 181 -52 189 -64 11 -14 77 -36 159 -52 84 -17 110 -29 110
-48 0 -10 24 -15 89 -18 67 -4 98 -11 124 -27 19 -11 50 -21 69 -21 20 0 55
-7 79 -16 59 -21 199 -61 279 -80 36 -8 75 -24 88 -37 13 -12 36 -23 50 -23
15 -1 59 -10 97 -19 43 -11 101 -17 152 -16 54 1 92 -3 110 -12 15 -8 51 -17
78 -20 28 -3 86 -11 130 -17 139 -19 435 -9 435 14 0 8 -50 12 -160 13 -149 2
-200 10 -200 33 0 34 258 40 331 7 18 -8 57 -20 85 -27 59 -13 112 -43 121
-68 17 -48 76 -121 105 -131 18 -6 42 -21 54 -32 14 -13 24 -17 29 -10 9 16
57 13 143 -9 75 -18 221 -40 312 -45 51 -3 141 -20 215 -41 70 -20 164 -31
200 -24 17 4 44 1 62 -6 34 -13 76 -8 70 9 -2 6 -17 14 -33 19 -16 4 -42 14
-59 22 -64 30 -112 45 -165 51 -154 17 -201 39 -164 75 10 10 37 21 58 24 22
4 45 11 53 17 9 8 22 8 44 0 18 -6 50 -11 71 -11 34 0 38 3 34 18 -7 20 17 29
174 67 36 8 89 22 118 30 91 24 276 46 338 39 71 -8 147 -36 186 -70 16 -13
34 -24 40 -24 6 0 20 -7 30 -17 24 -22 33 -11 20 27 -11 29 -68 93 -103 115
-58 36 -100 54 -113 49 -18 -7 -59 14 -51 27 4 5 17 9 30 9 23 0 35 17 35 50
0 11 9 24 21 30 23 13 49 67 49 103 0 19 -7 26 -29 30 -15 3 -47 24 -70 46
-24 23 -48 41 -54 41 -7 0 -27 9 -46 21 -19 11 -42 18 -52 16 -29 -8 -58 21
-65 64 -4 22 -11 42 -15 45 -5 3 -6 10 -3 16 4 7 2 8 -5 4 -12 -8 -44 18 -34
28 4 3 2 6 -3 6 -5 0 -15 -9 -22 -20 -7 -11 -18 -20 -25 -20 -28 0 -36 -21
-16 -41 16 -16 19 -28 14 -67 -11 -89 -7 -151 10 -169 12 -11 15 -25 11 -47
-4 -17 -7 -39 -7 -48 -1 -33 -103 -38 -123 -6 -16 25 -2 31 32 14 30 -15 62
-13 62 5 0 10 -27 84 -43 117 -6 12 -16 22 -23 22 -7 0 -15 21 -19 53 -3 28
-14 67 -23 84 -13 26 -14 39 -5 62 9 26 9 29 -6 24 -9 -4 -5 5 12 22 16 16 27
39 27 55 0 45 20 92 37 85 13 -4 14 1 9 30 -6 28 -2 42 17 68 14 17 28 46 31
63 4 18 16 40 26 49 11 10 17 22 14 27 -3 5 1 19 9 31 18 27 39 121 31 141 -3
8 -13 16 -23 19 -23 6 -49 93 -32 110 19 19 14 68 -9 74 -11 3 -23 16 -26 29
-3 13 -10 24 -14 24 -4 0 -13 21 -20 48 -7 26 -18 52 -25 57 -7 6 -16 31 -20
55 -4 25 -14 58 -22 74 -30 57 -3 220 31 186 5 -5 13 -10 18 -10 10 0 29 71
21 83 -14 24 -13 77 2 83 8 4 15 12 15 19 0 7 9 15 20 18 16 4 19 11 14 36 -5
24 -3 31 9 31 8 0 20 -7 27 -15 7 -8 21 -15 32 -15 16 0 18 3 9 13 -12 15 -5
27 16 27 18 0 10 -48 -17 -101 -14 -28 -18 -55 -16 -115 2 -58 -1 -84 -12 -96
-13 -15 -13 -22 1 -55 18 -48 52 -57 67 -19 5 14 7 33 4 41 -4 8 1 26 10 40 9
13 18 48 21 76 7 69 79 169 123 169 35 0 54 -110 25 -142 -14 -16 -15 -23 -4
-53 9 -27 9 -39 0 -57 -17 -32 -16 -92 2 -95 28 -5 42 12 29 36 -9 17 -9 26 0
37 7 7 9 21 6 30 -4 10 1 22 11 30 15 11 16 16 5 34 -7 11 -10 25 -7 31 4 5 8
27 10 49 3 22 9 49 15 59 5 11 10 33 10 49 0 16 7 35 15 42 8 7 15 19 15 28 0
28 35 91 51 92 8 0 21 -6 28 -12 11 -10 14 -10 18 0 8 22 31 13 36 -15 6 -34
1 -43 -24 -43 -32 0 -59 -19 -59 -40 0 -11 -7 -20 -15 -20 -8 0 -22 -14 -30
-31 -15 -28 -15 -35 1 -82 9 -29 19 -58 21 -66 2 -8 6 -12 9 -9 5 6 21 84 31
150 4 32 9 37 39 43 23 4 41 1 56 -10 13 -8 19 -15 15 -15 -14 0 16 -24 53
-43 19 -10 53 -29 75 -42 44 -26 81 -29 222 -17 13 1 30 17 43 38 19 29 27 34
46 30 14 -4 24 -2 24 4 0 5 9 10 20 10 19 0 21 -6 19 -52 -1 -29 2 -70 6 -90
8 -40 8 -40 -47 -52 -18 -4 -28 -13 -28 -24 0 -19 -35 -62 -50 -62 -5 0 -28
-13 -52 -29 -32 -22 -46 -40 -56 -71 -7 -24 -10 -45 -7 -48 9 -9 70 -9 83 1 6
5 12 17 12 26 0 10 6 26 14 37 12 15 17 17 27 7 21 -21 47 -15 71 18 13 17 35
37 49 45 21 11 28 23 33 65 l7 52 22 -24 c12 -12 29 -46 38 -73 14 -42 23 -52
47 -58 47 -12 49 -38 8 -74 -25 -21 -34 -37 -30 -48 3 -9 1 -16 -5 -16 -18 0
-13 -48 7 -59 9 -6 11 -11 5 -11 -20 0 -15 -44 6 -62 19 -16 19 -64 1 -53 -19
12 -40 -9 -40 -39 0 -29 -5 -35 -47 -54 -83 -37 -253 -186 -253 -220 0 -8 -11
-29 -24 -47 -14 -17 -28 -48 -31 -68 -4 -21 -11 -40 -16 -43 -5 -2 -13 -23
-19 -46 -11 -38 -10 -42 16 -69 17 -18 38 -29 54 -29 14 0 30 -4 36 -10 5 -5
36 -10 69 -12 45 -2 60 -7 60 -18 0 -8 11 -20 24 -26 13 -7 28 -20 33 -28 5
-9 17 -16 27 -16 28 0 88 -28 94 -43 3 -8 -1 -24 -9 -35 -23 -33 -8 -63 57
-117 37 -31 62 -60 66 -77 5 -26 8 -27 44 -22 36 6 39 5 39 -16 0 -20 -3 -22
-37 -15 -21 4 -45 13 -54 21 -23 21 -35 17 -58 -15 -23 -32 -20 -37 28 -57 28
-12 32 -16 21 -29 -7 -9 -11 -18 -8 -20 4 -5 42 -10 98 -15 22 -2 21 -3 -10
-12 l-35 -11 34 -14 c19 -8 46 -15 59 -16 39 -3 36 -22 -3 -23 -36 -1 -75 -27
-75 -51 0 -18 26 -16 57 5 15 9 43 18 63 18 72 3 227 32 261 50 19 9 57 19 84
20 87 3 384 68 580 126 60 17 100 20 285 22 207 1 217 2 244 24 16 12 39 22
52 22 33 0 126 38 144 58 8 9 28 24 43 32 16 8 54 38 84 68 31 29 68 59 84 67
15 8 51 37 79 64 29 28 66 53 83 57 18 3 47 19 65 35 18 16 39 29 47 29 8 0
20 9 27 20 15 24 113 74 184 94 27 8 78 24 114 36 154 52 221 70 309 84 119
20 218 20 251 1 27 -15 33 -18 98 -47 23 -10 42 -22 42 -26 -1 -20 -21 -33
-66 -38 -52 -8 -64 -16 -64 -50 0 -21 -50 -54 -82 -54 -8 0 -27 -14 -44 -31
-16 -17 -45 -39 -64 -49 -19 -10 -44 -27 -55 -38 -12 -10 -32 -22 -45 -25 -14
-3 -45 -24 -70 -47 -24 -22 -52 -43 -62 -46 -10 -3 -18 -9 -18 -14 0 -14 141
46 192 82 14 10 33 18 41 18 9 0 24 12 34 26 15 20 28 26 59 26 41 0 84 15 84
30 0 15 54 57 73 58 10 0 16 -4 13 -9 -5 -8 35 -31 54 -31 16 0 -2 38 -22 43
-16 5 -18 9 -9 26 13 23 64 35 104 23 l28 -7 -21 -28 c-38 -48 -9 -73 50 -42
29 15 31 15 60 -17 36 -41 37 -44 4 -52 l-27 -7 24 -17 c13 -9 28 -17 34 -18
5 0 18 -2 28 -2 20 -2 87 -63 87 -79 0 -11 27 -47 108 -146 44 -54 50 -82 20
-101 -13 -8 -22 -5 -41 12 -27 25 -50 28 -66 8 -10 -11 -5 -19 21 -39 18 -13
47 -25 64 -25 17 0 79 -21 138 -46 130 -56 156 -58 156 -16 0 19 -7 33 -20 40
-26 14 -25 38 1 67 21 21 21 23 4 29 -10 4 -36 3 -57 -3 -22 -6 -49 -8 -59 -6
-36 10 -15 37 56 74 l70 37 0 221 c0 217 -8 269 -29 187 -12 -47 -23 -46 -18
1 3 24 13 44 28 56 l24 18 -1 387 c-1 213 -4 410 -7 439 l-7 52 -24 -18 -24
-19 21 -6 c12 -4 22 -12 22 -17 0 -15 -42 -10 -54 6 -6 8 -24 17 -41 19 -16 2
-38 7 -47 11 -10 4 -38 -1 -63 -11 -40 -15 -53 -15 -103 -4 -31 7 -62 17 -69
22 -7 5 -18 6 -25 2 -13 -8 -40 -10 -224 -13 -113 -2 -198 14 -190 35 7 17
-39 19 -50 2 -5 -8 -10 -7 -18 5 -12 16 -66 13 -66 -4 0 -5 -9 -9 -20 -9 -11
0 -20 4 -20 8 0 12 -46 32 -73 32 -25 1 -60 24 -50 34 10 9 -55 66 -75 66 -9
0 -26 8 -38 18 -21 17 -66 84 -77 114 -7 20 13 79 32 94 21 16 6 44 -23 44
-14 0 -27 4 -31 10 -3 5 -12 7 -20 4 -18 -7 -32 23 -17 38 13 13 72 21 72 9 0
-15 32 -22 45 -11 21 17 63 1 69 -26 6 -21 9 -23 26 -14 11 6 26 7 33 3 11 -7
69 -17 180 -29 26 -3 77 -1 112 5 55 10 68 9 89 -4 34 -22 87 -16 111 12 18
21 24 23 48 14 39 -15 47 -14 47 8 0 26 6 29 79 35 34 3 69 10 78 15 10 5 27
5 45 -1 34 -12 91 -3 108 17 8 9 30 15 56 15 37 0 44 3 44 19 0 11 -14 30 -31
42 -29 20 -65 24 -149 17 -47 -4 -91 4 -111 21 l-24 19 23 25 c13 13 42 33 65
43 23 10 50 24 59 32 9 8 21 11 26 8 5 -3 15 0 21 8 17 20 71 28 89 14 12 -10
19 -7 38 17 19 24 32 30 71 32 26 2 51 9 55 16 11 18 10 115 -2 122 -6 4 -24
-1 -41 -9 -17 -9 -35 -13 -40 -10 -5 3 -18 0 -31 -7 -18 -10 -29 -8 -64 12
l-43 23 -26 -24 c-24 -22 -36 -25 -115 -26 -49 -1 -108 3 -132 8 -58 14 -169
16 -189 5 -18 -11 -79 16 -79 36 -1 12 -57 41 -130 68 -19 7 -38 18 -42 25 -4
6 -27 15 -51 18 -31 5 -55 17 -81 42 -31 29 -42 34 -66 29 -25 -6 -30 -3 -36
19 -7 30 -29 33 -55 10 -19 -17 -79 -12 -79 7 0 5 -25 9 -55 9 -31 0 -69 6
-84 14 -24 13 -32 13 -54 1 -22 -11 -28 -11 -38 1 -7 8 -19 14 -28 12 -23 -4
-41 10 -41 33 0 10 -4 19 -9 19 -6 0 -9 12 -8 27 2 20 -6 32 -33 50 -19 13
-48 45 -63 70 -16 25 -37 48 -48 50 -10 3 -35 27 -54 54 -19 27 -40 49 -45 49
-18 0 -165 121 -174 144 -10 25 -51 47 -72 39 -10 -3 -12 0 -9 10 9 23 -27 31
-170 37 l-130 5 0 30 c0 29 -2 30 -45 31 -67 1 -68 2 -72 26 -4 29 -51 47 -78
30 -24 -15 -120 -16 -120 -2 0 6 -15 11 -32 11 -187 5 -189 5 -210 -20 -17
-22 -22 -23 -40 -12 -17 10 -23 10 -39 -5 -10 -9 -19 -23 -19 -31 0 -24 -29
-13 -45 17 -9 17 -22 30 -30 30 -8 0 -15 5 -15 11 0 5 -4 8 -9 4 -16 -9 -61
17 -61 36 0 17 21 35 45 38 52 8 100 28 123 52 15 16 32 29 38 29 6 0 21 9 34
20 13 11 26 20 30 20 4 0 12 11 18 24 8 19 20 25 49 28 28 2 41 9 50 28 9 18
23 27 55 32 24 4 52 9 63 11 43 8 65 19 65 33 0 8 10 14 23 14 35 0 59 22 55
51 -5 36 -53 30 -87 -12 -25 -29 -29 -31 -73 -24 -37 6 -48 12 -50 28 -4 25
-30 42 -52 34 -14 -6 -13 -11 9 -43 19 -28 22 -40 14 -50 -13 -16 -29 -9 -29
11 0 9 -11 13 -29 13 -15 -1 -34 2 -40 7 -8 4 -14 -1 -18 -14 -3 -11 -9 -19
-13 -16 -5 3 -21 0 -36 -5 -16 -6 -61 -12 -102 -14 -46 -2 -77 -8 -82 -16 -5
-9 -9 -9 -15 -1 -8 14 -41 5 -74 -20 -16 -13 -40 -19 -77 -19 -63 0 -201 -17
-229 -29 -55 -23 -98 -31 -161 -31 -41 -1 -79 -7 -94 -15 -14 -8 -35 -14 -48
-15 -12 0 -34 -8 -48 -17 -23 -15 -35 -15 -92 -5 -54 9 -72 8 -106 -5 -23 -8
-59 -17 -81 -20 -22 -2 -68 -11 -102 -19 -55 -13 -66 -13 -91 0 -16 8 -44 13
-63 11 -19 -2 -59 -7 -89 -10 -30 -3 -118 -13 -195 -21 -89 -10 -169 -13 -220
-8 -44 3 -100 8 -125 9 -73 4 -174 16 -190 22 -17 7 -68 6 -220 -3 -90 -6
-107 -4 -119 10 -18 21 -34 21 -27 -1 8 -27 -43 -51 -122 -59 -46 -5 -73 -13
-85 -25 -10 -11 -29 -19 -43 -19 -34 0 -67 -19 -60 -35 2 -7 -4 -15 -15 -18
-10 -3 -19 -1 -19 4 0 5 -12 12 -26 15 -19 5 -31 1 -46 -16 -15 -15 -26 -20
-42 -15 -35 12 -105 18 -124 10 -9 -4 -45 -9 -79 -10 -56 -3 -62 -2 -65 18 -2
14 -13 23 -34 29 -16 4 -43 24 -60 44 -33 41 -33 41 -94 90 -25 20 -49 46 -55
58 -14 31 -57 90 -72 99 -7 4 -10 14 -7 21 3 8 -3 19 -15 25 -11 6 -23 20 -26
32 -4 12 -23 38 -43 58 -21 20 -48 60 -62 89 -34 70 -54 69 -70 -4 -6 -26 -5
-34 6 -34 8 0 14 -4 14 -9 0 -5 20 -35 45 -67 51 -66 59 -104 21 -104 -30 0
-42 -16 -27 -34 14 -17 51 -25 77 -16 22 8 93 -25 101 -47 10 -26 -15 -36
-107 -41 -76 -3 -90 -2 -90 11 0 9 5 19 10 22 17 10 11 25 -15 37 -19 9 -22
14 -14 24 21 25 3 46 -34 39 -26 -5 -36 -3 -40 9 -4 9 -15 16 -25 16 -26 0
-42 20 -42 52 0 23 -4 28 -24 28 -39 0 -68 15 -113 59 -23 23 -47 41 -52 41
-6 0 -16 10 -22 23 -17 32 -61 66 -87 67 -14 0 -27 9 -34 25 -6 13 -19 27 -30
30 -10 4 -18 10 -18 14 0 4 -11 13 -25 19 -14 6 -25 20 -25 30 0 10 -20 37
-45 60 -55 51 -61 96 -19 139 14 14 30 35 35 47 5 11 20 40 33 64 14 23 27 55
31 72 3 16 14 39 24 52 10 13 22 42 26 65 3 23 13 47 22 54 11 10 13 25 8 71
-5 40 -4 58 4 58 7 0 15 8 18 17 4 9 16 28 27 41 13 15 19 34 18 55 -2 18 6
54 17 81 12 26 21 61 21 77 0 16 7 41 17 55 9 15 17 50 19 82 1 31 9 73 17 92
8 19 18 72 22 118 4 51 14 96 25 115 10 18 21 52 24 77 4 24 10 49 15 55 16
21 42 105 43 137 1 42 14 58 47 58 42 1 61 22 61 69 0 36 4 43 28 53 15 6 44
10 65 10 26 -1 37 3 37 14 0 7 4 14 9 14 5 0 13 9 16 20 3 11 13 20 22 20 9 0
30 9 47 19 17 11 50 25 74 32 73 21 28 29 -179 29 -164 0 -199 -3 -209 -15
-11 -14 -15 -14 -29 -1 -15 13 -247 15 -1899 16 l-1882 0 0 -194z m3805 144
c-3 -5 -10 -10 -16 -10 -5 0 -9 5 -9 10 0 6 7 10 16 10 8 0 12 -4 9 -10z
m-997 -12 c7 -7 12 -19 12 -27 0 -11 -4 -10 -20 4 -21 19 -26 35 -12 35 4 0
13 -5 20 -12z m792 -69 c0 -18 -5 -29 -14 -29 -8 0 -16 -7 -20 -15 -7 -19 -25
-19 -33 0 -3 10 5 24 21 38 14 13 26 28 26 35 0 7 5 10 10 7 6 -3 10 -19 10
-36z m-860 6 c0 -9 -7 -18 -16 -22 -20 -7 -38 18 -21 29 20 13 37 9 37 -7z
m978 -63 c2 -15 -2 -22 -12 -22 -11 0 -16 9 -16 26 0 31 23 28 28 -4z m-1528
-60 c0 -4 -7 -18 -16 -30 -21 -30 -38 -17 -18 14 16 23 34 32 34 16z m510 -31
c0 -23 -16 -36 -25 -21 -9 14 1 40 15 40 5 0 10 -9 10 -19z m-68 -23 c-15 -15
-24 -6 -16 16 5 12 10 14 17 7 8 -8 8 -14 -1 -23z m-362 12 c0 -5 -4 -10 -10
-10 -5 0 -10 5 -10 10 0 6 5 10 10 10 6 0 10 -4 10 -10z m-50 -60 c0 -11 -4
-20 -10 -20 -5 0 -10 9 -10 20 0 11 5 20 10 20 6 0 10 -9 10 -20z m-537 -17
c-7 -18 -37 -13 -41 8 -2 13 3 15 22 12 16 -3 23 -10 19 -20z m-26 -57 c-7
-17 -52 -22 -62 -6 -8 12 48 41 59 30 5 -5 6 -16 3 -24z m948 5 c-3 -6 -11
-11 -16 -11 -5 0 -4 6 3 14 14 16 24 13 13 -3z m872 -64 c6 -37 0 -44 -26 -28
-10 6 -12 19 -7 46 9 45 24 36 33 -18z m-3037 39 c0 -3 -4 -8 -10 -11 -5 -3
-10 -1 -10 4 0 6 5 11 10 11 6 0 10 -2 10 -4z m2155 -46 c20 -23 13 -55 -11
-46 -9 3 -19 6 -24 6 -12 0 -20 28 -14 45 8 21 27 19 49 -5z m796 -27 c14 -16
38 -38 53 -50 14 -12 23 -24 19 -26 -16 -10 -99 36 -115 63 -27 48 3 56 43 13z
m-1391 -43 c0 -31 22 -60 46 -60 15 0 17 -9 8 -33 -3 -9 -13 -13 -27 -9 -33 8
-47 22 -47 48 0 21 -12 29 -41 26 -10 -1 3 63 14 70 20 12 47 -12 47 -42z
m1540 40 c0 -5 -7 -10 -15 -10 -8 0 -15 5 -15 10 0 6 7 10 15 10 8 0 15 -4 15
-10z m-278 -62 c-7 -7 -12 -8 -12 -2 0 14 12 26 19 19 2 -3 -1 -11 -7 -17z
m328 -9 c0 -5 -11 -9 -25 -9 -28 0 -34 16 -7 23 20 4 32 -1 32 -14z m-232 -41
c-3 -7 -11 -13 -19 -14 -8 0 -22 -4 -31 -8 -32 -15 -44 0 -13 16 37 20 68 22
63 6z m-860 -11 c-8 -10 27 -37 48 -37 22 0 41 -16 31 -26 -3 -3 -23 0 -45 5
-35 10 -40 14 -38 40 0 16 2 28 4 26 2 -2 2 -5 0 -8z m842 -57 c0 -5 -7 -10
-15 -10 -8 0 -15 5 -15 10 0 6 7 10 15 10 8 0 15 -4 15 -10z m-164 -74 c-4
-31 -13 -59 -20 -63 -7 -5 -16 -15 -19 -23 -3 -9 -6 -3 -6 13 -1 15 3 27 7 27
4 0 9 23 10 51 2 58 9 76 24 61 7 -7 8 -32 4 -66z m-942 45 c-10 -10 -21 -14
-23 -8 -4 10 17 27 33 27 5 0 1 -8 -10 -19z m294 -73 c14 -16 22 -28 16 -28
-5 0 10 -18 34 -40 44 -41 48 -53 32 -94 -7 -19 -17 -26 -37 -26 -27 0 -72 20
-45 20 22 0 13 19 -18 35 -27 14 -33 14 -60 0 -29 -15 -39 -38 -21 -49 14 -9
21 -76 10 -104 l-11 -27 -13 33 c-15 33 -33 40 -53 20 -7 -7 -24 -13 -40 -14
-15 -1 -33 -2 -40 -3 -9 -1 -11 -14 -6 -50 5 -40 3 -49 -11 -54 -9 -4 -26 -2
-37 4 -11 6 -29 8 -40 6 -14 -4 -22 0 -25 13 -3 11 -14 22 -24 25 -12 4 -19
16 -19 30 0 15 -10 31 -23 40 -13 8 -29 26 -35 40 -10 21 -8 30 12 59 l23 35
11 -25 c7 -13 17 -24 23 -24 17 0 49 30 49 47 0 7 5 13 10 13 6 0 10 -5 10
-10 0 -6 12 -8 28 -4 56 12 59 15 32 29 -14 8 -19 14 -12 15 8 0 12 16 12 44
0 83 55 141 91 97 21 -26 30 -26 60 -2 38 30 62 30 78 1 7 -14 25 -37 39 -52z
m856 66 c3 -8 1 -25 -5 -36 -15 -27 -34 -8 -25 26 7 29 21 34 30 10z m-24 -86
c0 -7 -4 -19 -9 -26 -7 -11 -10 -10 -15 3 -3 9 -4 21 0 26 8 13 24 11 24 -3z
m-311 -164 c-17 -21 -29 -17 -29 11 0 23 2 24 21 15 16 -9 18 -14 8 -26z
m-214 -10 c13 -31 17 -35 30 -24 21 18 55 -14 55 -51 0 -36 14 -44 45 -23 24
16 25 15 35 -10 8 -22 14 -25 34 -20 21 5 26 2 32 -21 5 -20 2 -30 -15 -41
-11 -8 -21 -23 -21 -33 0 -10 -7 -32 -15 -47 -8 -16 -15 -23 -15 -16 0 6 -6
12 -13 12 -29 0 -77 32 -83 56 -8 31 -20 30 -36 -3 -20 -41 -38 -41 -38 1 0
30 -4 36 -21 36 -23 0 -23 -8 5 -72 15 -36 15 -38 -1 -36 -10 1 -37 -3 -60
-10 -40 -12 -43 -15 -43 -48 0 -21 8 -43 20 -56 34 -37 25 -60 -22 -51 -17 3
-37 20 -55 47 -15 22 -34 46 -41 51 -11 9 -9 14 7 29 11 10 25 33 31 52 13 39
43 52 66 29 12 -12 19 -13 30 -4 20 17 17 40 -6 46 -21 6 -23 29 -4 50 6 6 21
9 32 6 17 -4 20 -1 15 16 -3 14 -12 20 -27 18 -29 -3 -28 35 1 48 15 6 29 27
39 57 8 27 17 48 20 48 2 0 11 -16 19 -36z m240 -74 c4 -6 1 -18 -6 -26 -12
-14 -14 -14 -26 2 -7 9 -10 21 -7 25 7 12 31 11 39 -1z m-510 -20 c-3 -5 -15
-10 -26 -10 -10 0 -19 5 -19 10 0 6 12 10 26 10 14 0 23 -4 19 -10z m-93 -65
c16 -35 1 -45 -22 -15 -24 30 -25 40 -5 40 9 0 21 -11 27 -25z m798 -15 c0
-11 -40 -34 -47 -26 -7 7 20 35 35 36 6 0 12 -4 12 -10z m-1184 -36 c5 -18 10
-22 17 -15 15 15 27 14 27 -2 0 -6 -13 -18 -30 -25 -34 -15 -57 -8 -40 13 8
10 7 16 -6 23 -9 5 -14 14 -10 21 13 20 35 12 42 -15z m542 2 c3 -13 -1 -17
-14 -14 -11 2 -20 11 -22 22 -3 13 1 17 14 14 11 -2 20 -11 22 -22z m547 14
c20 -8 25 -15 20 -30 -5 -15 1 -24 23 -37 16 -10 29 -22 29 -28 -1 -15 54 -23
83 -13 18 7 27 5 36 -7 11 -15 13 -15 17 2 4 16 5 16 6 -2 0 -11 -6 -29 -14
-39 -8 -11 -15 -28 -15 -38 0 -26 -59 -40 -83 -19 -15 13 -20 13 -27 2 -4 -8
-15 -11 -24 -8 -14 6 -15 11 -6 28 7 12 18 18 26 15 9 -3 14 1 14 14 0 25 -7
25 -49 -1 -20 -12 -55 -21 -87 -23 l-54 -3 0 38 c0 22 0 42 1 45 0 4 -5 10
-11 14 -10 6 -9 13 4 31 9 13 16 31 16 40 0 28 47 37 95 19z m181 -37 c-11
-11 -19 6 -11 24 8 17 8 17 12 0 3 -10 2 -21 -1 -24z m-979 -159 c5 -17 -15
-37 -31 -31 -14 5 -15 11 -6 27 11 21 31 23 37 4z m-125 -265 c15 -14 24 -29
21 -33 -10 -9 -86 -7 -103 4 -12 8 -12 11 3 28 9 10 17 24 17 30 0 17 31 3 62
-29z m928 -438 c0 -19 -23 -71 -31 -71 -14 0 -11 20 4 21 10 0 10 2 0 6 -7 2
-13 16 -13 29 0 17 6 24 20 24 11 0 20 -4 20 -9z m258 -63 c22 -24 42 -69 42
-94 0 -19 -54 -18 -74 2 -21 20 -30 58 -22 89 8 31 26 32 54 3z m103 -199 c23
-12 16 -29 -11 -29 -21 0 -34 15 -25 30 8 13 12 12 36 -1z m105 -6 c14 -43 45
-103 52 -103 5 0 17 -7 28 -15 17 -14 14 -15 -43 -12 -42 2 -69 9 -82 21 -10
10 -27 19 -37 20 -29 4 -26 19 15 64 42 46 58 52 67 25z m133 -33 l34 -29 -24
-9 c-30 -12 -79 11 -79 37 0 40 23 40 69 1z m23 -116 c-6 -33 -45 -30 -50 4
-3 18 1 22 26 22 26 0 29 -3 24 -26z m3767 -13 c16 -10 6 -31 -15 -31 -8 0
-14 -6 -13 -12 1 -7 -1 -21 -6 -31 -4 -10 -5 -36 -2 -57 4 -30 2 -40 -9 -40
-7 0 -13 8 -12 18 3 39 -3 52 -23 52 -23 0 -65 -29 -64 -45 0 -5 4 -16 8 -22
6 -9 2 -13 -12 -13 -14 0 -21 6 -21 19 0 10 -7 21 -15 24 -12 5 -12 2 -2 -20
10 -22 8 -28 -11 -44 -24 -19 -49 -16 -67 8 -6 8 -21 19 -34 26 -35 17 -37 35
-4 43 15 4 34 16 41 26 10 13 26 18 63 18 27 0 49 4 49 9 0 5 12 12 26 15 19
5 24 11 19 26 -4 12 0 22 12 29 22 13 73 14 92 2z m-2199 -188 c30 -8 61 -17
68 -19 19 -5 14 -21 -10 -27 -25 -7 -109 8 -140 24 -33 18 -98 2 -128 -31 -14
-15 -37 -31 -52 -34 -25 -6 -28 -4 -28 22 0 23 8 33 43 53 23 13 53 27 67 31
33 9 112 1 180 -19z m2274 -94 c-3 -5 -10 -7 -15 -4 -7 5 -7 27 1 55 1 3 5 -6
11 -18 5 -13 6 -28 3 -33z m-2124 26 c7 -8 17 -15 22 -15 13 0 47 -42 48 -57
0 -23 -21 -14 -67 27 -25 22 -50 40 -54 40 -5 0 -9 5 -9 10 0 16 46 12 60 -5z
m-520 -84 c35 -30 50 -37 59 -28 8 8 11 6 11 -10 0 -27 10 -53 20 -53 15 0 70
-58 70 -74 0 -33 32 -31 61 3 21 25 33 32 55 29 33 -3 35 -21 4 -26 -21 -4
-44 -35 -32 -46 3 -4 7 -17 7 -29 0 -14 7 -23 20 -25 45 -7 74 -25 79 -48 4
-16 18 -29 36 -36 19 -6 36 -23 47 -45 16 -34 18 -35 60 -29 24 3 43 2 43 -3
0 -6 -10 -11 -22 -13 -30 -4 -35 -34 -9 -43 15 -5 21 -15 21 -38 0 -21 9 -40
25 -55 23 -22 25 -23 52 -6 l28 18 -22 -23 c-29 -28 -29 -42 2 -75 40 -43 40
-45 -66 -143 -13 -13 -34 -34 -47 -47 -13 -14 -43 -34 -67 -45 -25 -12 -52
-35 -65 -55 -12 -20 -29 -40 -38 -45 -9 -5 -39 -56 -67 -113 -27 -57 -54 -103
-59 -103 -6 0 -14 15 -18 33 -5 17 -13 32 -18 32 -5 0 -28 31 -50 70 -23 38
-59 89 -79 112 -53 60 -63 83 -55 123 8 46 -1 69 -22 57 -27 -15 -75 9 -132
66 l-54 53 3 80 c3 76 2 81 -21 92 -14 7 -25 20 -24 30 3 67 4 68 26 65 12 -2
27 -13 33 -25 11 -21 12 -19 28 25 22 62 22 70 -9 99 -35 33 -58 23 -51 -21 3
-18 1 -39 -4 -47 -10 -16 -10 -15 -11 64 0 26 -4 50 -9 53 -14 8 -11 24 5 24
7 0 16 -9 19 -20 3 -11 12 -20 21 -20 21 0 20 17 -1 29 -15 8 -16 10 -3 15 8
3 29 6 45 8 26 3 30 7 30 33 l0 30 64 -2 c35 -1 69 -7 75 -13 6 -6 23 -59 37
-118 l26 -107 8 56 c9 72 2 105 -44 204 -21 45 -41 93 -45 108 -4 19 -12 27
-23 25 -10 -2 -19 5 -21 15 -6 28 18 20 68 -22z m774 -57 c9 -8 14 -20 10 -25
-8 -13 -44 8 -44 26 0 19 15 19 34 -1z m151 -105 c10 -16 -1 -22 -26 -14 -17
6 -19 9 -8 16 19 12 26 11 34 -2z m-475 -54 c0 -8 -6 -15 -14 -15 -17 0 -28
14 -19 24 12 12 33 6 33 -9z m3220 -34 c0 -11 -67 -24 -80 -16 -6 4 -8 11 -5
16 8 12 85 12 85 0z m-124 -20 c-8 -12 -46 -21 -46 -11 0 9 18 18 38 19 7 1
11 -3 8 -8z m-73 -38 c-7 -2 -21 -2 -30 0 -10 3 -4 5 12 5 17 0 24 -2 18 -5z
m-2757 -31 c-1 -23 -5 -27 -22 -24 -11 2 -28 -4 -38 -13 -9 -9 -23 -14 -32
-11 -19 7 -9 26 15 26 10 0 23 11 29 25 16 36 49 34 48 -3z m2704 18 c0 -13
-28 -25 -38 -16 -3 4 0 11 8 16 20 13 30 12 30 0z m-2234 -112 c35 -42 45 -68
38 -103 -8 -42 -22 -54 -54 -44 -24 7 -24 7 -2 8 18 1 22 7 22 35 0 18 -7 39
-16 47 -10 8 -13 21 -9 37 4 16 1 28 -7 33 -7 5 -8 9 -2 9 6 0 19 -10 30 -22z
m-495 -38 c19 -11 19 -11 -3 -40 -17 -23 -25 -27 -40 -19 -11 6 -18 21 -18 39
0 24 4 30 21 30 11 0 29 -5 40 -10z m3089 -26 c19 -3 43 -14 53 -22 10 -9 28
-17 40 -19 30 -5 47 -30 47 -70 0 -27 -7 -37 -39 -59 -22 -14 -44 -23 -50 -20
-5 4 -15 -3 -21 -14 -8 -16 -8 -22 3 -26 8 -3 17 -18 21 -35 5 -27 25 -41 27
-19 1 6 2 16 3 22 0 7 9 14 18 16 23 4 34 -41 19 -75 -10 -21 -14 -23 -27 -12
-13 10 -17 10 -25 -2 -5 -8 -9 -20 -10 -26 -1 -7 -3 -25 -5 -40 -2 -16 -5 -39
-7 -53 -7 -60 -15 -67 -72 -72 -66 -6 -74 -12 -50 -38 20 -22 45 -84 45 -112
0 -25 -17 -22 -31 3 -9 17 -13 19 -20 8 -11 -18 -12 -59 -1 -59 30 0 41 -107
17 -154 -8 -15 -15 -37 -15 -47 0 -10 -11 -26 -24 -34 -13 -9 -26 -30 -30 -47
-5 -24 -10 -29 -26 -25 -31 8 -24 -10 10 -25 33 -14 35 -31 4 -37 -10 -2 -22
-8 -26 -15 -6 -8 -8 -8 -8 1 0 6 5 15 10 18 16 10 1 25 -24 25 -13 0 -31 9
-41 20 -17 19 -17 20 7 29 32 12 72 72 55 83 -14 8 19 48 40 48 15 0 18 26 3
35 -15 9 -100 -25 -100 -41 0 -23 12 -44 26 -44 8 0 14 -4 14 -9 0 -22 -20
-19 -61 11 -26 19 -44 27 -47 20 -2 -7 -15 -12 -28 -12 -26 0 -31 18 -13 52
14 26 -2 64 -30 73 -12 3 -21 13 -21 21 0 8 -5 14 -11 14 -6 0 -8 -9 -4 -21 7
-21 -19 -89 -35 -89 -5 0 -25 9 -44 21 -27 16 -36 28 -36 48 0 40 -26 72 -54
65 -42 -10 -46 68 -5 81 16 5 18 10 8 21 -9 11 -8 18 5 33 14 16 15 23 6 41
-6 12 -9 34 -5 49 4 20 0 32 -15 46 -27 24 -25 49 4 68 36 24 81 34 74 16 -4
-8 -9 -22 -13 -31 -5 -12 -2 -18 7 -18 17 0 41 47 32 62 -3 5 2 8 12 7 11 -2
33 11 51 30 20 20 42 32 55 31 13 -1 28 -2 34 -1 14 1 34 45 34 76 0 42 10 55
45 55 41 0 61 28 71 99 6 48 24 82 24 47 0 -9 7 -16 15 -16 8 0 15 5 15 10 0
6 -5 10 -12 10 -6 0 -3 9 8 21 19 21 30 22 124 3z m-2929 -49 c0 -12 -87 -24
-103 -14 -9 6 -8 10 4 14 10 4 21 5 25 2 4 -2 17 -1 28 4 25 10 46 7 46 -6z
m-3368 -60 c-3 -13 -53 -20 -53 -7 0 15 13 23 35 20 11 -2 19 -7 18 -13z
m-108 -75 c-2 -3 -25 -2 -51 4 l-46 11 38 11 c33 10 41 9 51 -4 7 -8 10 -18 8
-22z m2245 -59 c0 -12 -20 -25 -27 -18 -7 7 6 27 18 27 5 0 9 -4 9 -9z m4446
-8 c15 -20 19 -53 6 -53 -15 0 -32 24 -32 47 0 27 8 29 26 6z m-4400 -114
c-15 -26 -16 -33 -5 -40 21 -13 50 -11 82 6 26 13 28 13 37 -10 5 -13 18 -29
30 -35 15 -8 20 -21 20 -48 0 -29 7 -43 31 -65 38 -33 30 -51 -20 -42 -24 4
-42 1 -56 -9 -19 -14 -19 -15 13 -26 34 -13 35 -14 26 -47 -5 -18 -14 -23 -39
-23 -36 0 -108 29 -147 60 -14 11 -37 24 -52 30 -23 8 -26 15 -26 58 0 27 -5
74 -11 103 -14 69 -13 89 4 106 12 12 16 10 27 -16 11 -28 19 -33 48 -30 4 0
6 10 4 21 -3 27 27 63 42 48 7 -7 4 -20 -8 -41z m3150 -8 c-14 -15 -26 -35
-26 -45 0 -26 -25 -13 -28 15 -2 18 6 30 30 45 43 28 57 19 24 -15z m-4813
-47 c15 -2 37 -8 47 -14 21 -11 27 -30 11 -30 -5 0 -12 -9 -16 -19 -3 -12 -12
-18 -20 -15 -8 4 -15 -3 -17 -18 -4 -22 -5 -22 -13 -3 -12 28 -36 44 -65 45
-28 1 -60 21 -60 39 0 6 15 11 35 11 19 0 35 5 35 11 0 7 7 8 18 4 9 -4 30 -9
45 -11z m4707 -21 c-1 -24 -24 -53 -42 -53 -9 0 -21 -7 -28 -15 -14 -17 -56
-20 -65 -5 -11 19 15 48 49 54 19 4 39 13 46 21 17 20 40 19 40 -2z m1750 -14
c0 -5 -10 -9 -21 -9 -18 0 -19 2 -9 15 12 15 30 12 30 -6z m970 -4 c0 -8 5
-15 11 -15 18 0 -1 -19 -36 -36 -19 -9 -35 -20 -35 -25 0 -5 -7 -9 -15 -9 -8
0 -30 -14 -50 -31 -25 -23 -40 -29 -53 -23 -9 4 -54 8 -99 9 -45 0 -84 3 -88
7 -12 11 28 55 65 72 19 8 76 22 125 31 50 9 97 20 105 25 26 15 70 12 70 -5z
m-7670 -14 c0 -12 -28 -22 -34 -12 -3 5 -3 11 1 15 9 9 33 7 33 -3z m7008 -32
c4 -21 -48 -45 -59 -27 -10 16 19 50 40 46 9 -2 17 -10 19 -19z m77 -29 c3 -5
1 -10 -4 -10 -6 0 -11 5 -11 10 0 6 2 10 4 10 3 0 8 -4 11 -10z m-6805 -16 c0
-8 -4 -12 -10 -9 -5 3 -10 10 -10 16 0 5 5 9 10 9 6 0 10 -7 10 -16z m-24 -38
c18 -18 18 -46 0 -46 -20 0 -39 27 -32 45 7 19 14 19 32 1z m6013 -37 c17 -39
4 -55 -55 -65 -38 -6 -43 -4 -49 17 -8 25 15 49 47 49 10 0 21 7 24 15 9 23
18 18 33 -16z m-903 -46 c-10 -10 -19 5 -10 18 6 11 8 11 12 0 2 -7 1 -15 -2
-18z m1484 -109 c7 -7 -22 -24 -42 -24 -20 0 -32 16 -22 31 6 10 52 5 64 -7z
m-3372 -31 c-4 -22 -22 -20 -26 1 -2 10 3 16 13 16 10 0 15 -7 13 -17z m2803
-36 c-8 -8 -11 -7 -11 4 0 20 13 34 18 19 3 -7 -1 -17 -7 -23z m-1067 -12 c-4
-8 -10 -15 -15 -15 -5 0 -9 7 -9 15 0 8 7 15 15 15 9 0 12 -6 9 -15z m297 -8
c-6 -6 -27 -16 -47 -23 -34 -12 -38 -11 -55 9 -20 25 -10 34 20 18 14 -8 26
-7 47 4 29 15 53 10 35 -8z m-129 -21 c15 -22 7 -36 -20 -36 -15 0 -33 5 -39
11 -9 9 -20 8 -45 -4 -35 -17 -55 -9 -45 17 4 9 17 16 29 16 13 0 29 4 36 8
16 11 75 2 84 -12z m1012 -41 c-6 -60 -29 -94 -62 -95 -22 0 -42 62 -33 102
12 51 14 53 60 53 l42 1 -7 -61z m-3480 -14 c-5 -5 -22 -7 -39 -3 l-30 6 35 6
c39 7 48 4 34 -9z m2514 7 c-6 -18 -28 -21 -28 -4 0 9 7 16 16 16 9 0 14 -5
12 -12z m232 -34 c0 -8 -5 -12 -10 -9 -6 4 -8 11 -5 16 9 14 15 11 15 -7z
m100 -14 c0 -10 -9 -21 -19 -25 -11 -3 -22 -12 -25 -20 -11 -29 -21 -14 -18
24 3 27 9 41 20 44 26 5 42 -3 42 -23z m-170 -11 c0 -5 -4 -9 -10 -9 -5 0 -10
-9 -10 -20 0 -21 19 -27 36 -11 5 5 20 11 33 13 23 3 33 -7 45 -44 4 -15 10
-16 32 -8 19 8 31 7 41 -2 13 -10 12 -13 -5 -19 -11 -4 -37 -6 -58 -4 -22 1
-45 -2 -52 -8 -10 -7 -17 -4 -28 12 -12 17 -19 19 -29 11 -18 -15 -30 -7 -49
32 -15 30 -15 33 5 54 20 21 49 23 49 3z m-1753 -8 c10 -15 9 -20 -1 -24 -18
-7 -26 1 -26 25 0 23 12 23 27 -1z m1663 -15 c0 -11 -19 -15 -25 -6 -3 5 1 10
9 10 9 0 16 -2 16 -4z m-1750 -37 c0 -5 -4 -9 -10 -9 -5 0 -10 7 -10 16 0 8 5
12 10 9 6 -3 10 -10 10 -16z m1614 15 c20 -8 21 -38 1 -54 -21 -18 -47 -5 -43
22 3 20 -1 23 -27 20 -23 -2 -27 -1 -15 7 17 12 60 14 84 5z m-1984 -24 c0 -5
-7 -10 -15 -10 -8 0 -15 5 -15 10 0 6 7 10 15 10 8 0 15 -4 15 -10z m890 0 c0
-5 -2 -10 -4 -10 -3 0 -8 5 -11 10 -3 6 -1 10 4 10 6 0 11 -4 11 -10z m1210 0
c0 -5 -4 -10 -10 -10 -5 0 -10 5 -10 10 0 6 5 10 10 10 6 0 10 -4 10 -10z m60
-50 c0 -5 -4 -10 -9 -10 -6 0 -13 5 -16 10 -3 6 1 10 9 10 9 0 16 -4 16 -10z
m-1305 -10 c-3 -5 -10 -10 -16 -10 -5 0 -9 5 -9 10 0 6 7 10 16 10 8 0 12 -4
9 -10z m1065 -10 c0 -11 -7 -20 -15 -20 -27 0 -18 30 13 39 1 1 2 -8 2 -19z
m428 -24 c4 -19 -17 -21 -42 -3 -11 8 -15 19 -10 30 6 16 9 16 28 4 11 -8 22
-22 24 -31z m-3255 7 c3 -5 8 -28 12 -52 5 -31 4 -42 -4 -37 -6 4 -11 20 -11
36 0 16 -4 32 -10 35 -5 3 -10 10 -10 16 0 11 17 12 23 2z m1807 -35 c0 -19
-2 -20 -10 -8 -13 19 -13 30 0 30 6 0 10 -10 10 -22z m1104 7 c-4 -8 -10 -15
-15 -15 -4 0 -6 7 -3 15 4 8 10 15 15 15 4 0 6 -7 3 -15z m-1410 -102 c3 -38
0 -53 -9 -53 -7 0 -16 7 -19 16 -8 21 -8 108 1 130 6 15 8 13 16 -11 4 -17 10
-54 11 -82z m1586 82 c0 -8 -9 -15 -20 -15 -20 0 -26 11 -13 23 12 13 33 7 33
-8z m-4622 -52 c-3 -15 -6 -14 -17 6 -11 19 -11 25 0 32 15 9 23 -9 17 -38z
m4681 4 c-10 -37 -22 -46 -34 -27 -5 9 35 74 42 67 1 -2 -2 -20 -8 -40z m-99
3 c0 -5 -5 -10 -11 -10 -5 0 -7 5 -4 10 3 6 8 10 11 10 2 0 4 -4 4 -10z
m-3136 -116 c9 -24 7 -34 -8 -34 -18 0 -39 27 -31 40 9 15 32 12 39 -6z
m-1589 -73 c3 -5 -5 -17 -17 -25 -20 -14 -24 -14 -38 -1 -13 14 -13 17 0 25
19 12 47 13 55 1z m955 -1 c19 -12 2 -63 -22 -68 -22 -4 -36 56 -17 69 17 11
21 11 39 -1z m110 -80 c0 -5 -4 -10 -10 -10 -5 0 -10 5 -10 10 0 6 5 10 10 10
6 0 10 -4 10 -10z m2240 -74 c0 -3 -4 -8 -10 -11 -5 -3 -10 -1 -10 4 0 6 5 11
10 11 6 0 10 -2 10 -4z m-2348 -33 c10 -9 16 -18 14 -21 -3 -2 -33 -7 -68 -12
-81 -10 -109 8 -71 45 21 21 97 14 125 -12z m5318 -71 c0 -18 -18 -42 -31 -42
-4 0 -12 14 -19 31 -11 25 -11 32 0 39 19 12 50 -6 50 -28z m-5220 18 c22 -14
0 -31 -49 -37 -36 -5 -41 -3 -41 15 0 11 6 23 13 25 21 9 61 7 77 -3z m5353
-73 c10 -4 13 -13 10 -26 -6 -22 6 -28 23 -11 7 7 18 5 35 -7 47 -35 94 -53
126 -49 27 4 33 1 42 -24 10 -29 43 -52 94 -64 17 -4 27 -13 27 -25 0 -15 10
-21 40 -26 21 -4 43 -4 48 -1 5 3 33 -1 62 -10 37 -11 54 -21 58 -36 l5 -22 8
22 c6 17 17 22 42 22 30 0 36 -5 50 -37 9 -21 20 -45 26 -53 5 -8 14 -28 20
-43 15 -39 44 -32 51 11 6 37 8 38 50 14 31 -17 41 -52 16 -52 -8 0 -17 -8
-20 -18 -4 -10 -20 -28 -36 -40 -24 -18 -28 -27 -24 -51 8 -37 -10 -47 -37
-22 -18 17 -21 28 -17 66 3 25 2 48 -2 50 -13 8 -22 -30 -14 -59 5 -22 2 -26
-35 -36 -23 -6 -48 -21 -56 -34 -26 -39 -95 -16 -95 31 0 9 -8 11 -23 8 -17
-5 -30 1 -50 22 -47 48 -103 117 -126 155 -14 24 -32 39 -51 43 -17 4 -45 24
-65 48 -21 25 -52 48 -78 57 -27 10 -47 25 -55 42 -13 28 -44 44 -62 33 -15
-10 -50 4 -50 20 0 18 -34 37 -53 29 -15 -5 -50 33 -42 46 3 4 24 12 47 18 34
9 46 18 57 43 l14 31 12 -29 c7 -17 20 -33 28 -36z m-3106 2 c16 -6 23 -15 19
-24 -3 -8 -1 -17 5 -20 14 -9 5 -100 -12 -117 -17 -19 -83 -2 -75 18 3 8 1 16
-4 19 -6 4 -10 21 -10 39 0 25 -5 35 -20 39 -12 3 -20 14 -20 26 0 24 25 28
34 6 11 -29 35 -16 43 23 4 22 8 30 11 19 2 -10 15 -22 29 -28z m-2420 -15
c-3 -3 -12 -4 -19 -1 -8 3 -5 6 6 6 11 1 17 -2 13 -5z m20 -20 c-3 -3 -12 -4
-19 -1 -8 3 -5 6 6 6 11 1 17 -2 13 -5z m4253 -59 c0 -8 -4 -15 -10 -15 -5 0
-10 7 -10 15 0 8 5 15 10 15 6 0 10 -7 10 -15z m-1983 -276 c9 -9 8 -18 -4
-35 -21 -33 -43 -31 -43 4 0 42 22 56 47 31z m-284 -15 c9 -10 -4 -34 -19 -34
-8 0 -14 9 -14 20 0 19 19 27 33 14z m95 -97 c4 -20 -25 -34 -40 -19 -15 15
-1 44 19 40 10 -2 19 -11 21 -21z m600 -75 c9 -7 7 -18 -11 -52 -30 -57 -64
-81 -129 -91 -41 -7 -59 -15 -78 -39 -38 -46 -79 -40 -55 8 7 15 18 40 24 55
7 18 17 27 25 24 18 -7 101 45 115 72 7 12 24 21 44 24 17 2 37 4 42 5 6 1 16
-2 23 -6z m-423 -33 c7 -7 4 -15 -9 -25 -23 -17 -39 -17 -88 -3 -29 7 -38 15
-38 31 0 20 4 20 62 14 34 -3 67 -11 73 -17z m3905 -59 c0 -5 -4 -10 -10 -10
-5 0 -10 5 -10 10 0 6 5 10 10 10 6 0 10 -4 10 -10z m-3256 -29 c14 -26 14
-30 0 -35 -35 -13 -60 -6 -77 23 -16 28 -16 30 0 34 45 12 63 7 77 -22z
m-2704 -26 c0 -14 -4 -25 -10 -25 -11 0 -14 33 -3 43 11 11 13 8 13 -18z m-27
-31 c11 -11 -26 -64 -45 -64 -16 0 -16 3 3 35 21 35 30 41 42 29z m-1637 -39
c3 -14 4 -35 1 -46 -3 -12 0 -22 9 -26 19 -7 18 -43 -1 -43 -9 0 -19 8 -22 18
-4 9 -15 28 -25 41 -18 24 -24 62 -11 74 15 16 43 6 49 -18z m1764 -114 c0
-37 -19 -68 -33 -54 -11 10 -8 62 4 84 15 28 29 14 29 -30z m3181 -27 c8 -8
25 -14 37 -14 12 0 23 -8 27 -21 8 -25 10 -23 -45 -41 -56 -18 -91 -10 -108
25 -7 15 -21 27 -31 27 -11 0 -22 7 -25 16 -9 23 -1 28 22 13 17 -10 23 -10
37 5 20 19 58 15 86 -10z m279 -24 c0 -8 -83 -50 -100 -50 -4 0 -10 9 -13 21
-4 14 1 23 16 29 30 12 97 12 97 0z m-3190 -41 c0 -5 -4 -9 -10 -9 -5 0 -10 7
-10 16 0 8 5 12 10 9 6 -3 10 -10 10 -16z m-180 -4 c0 -8 -4 -15 -9 -15 -5 0
-17 -7 -26 -16 -23 -23 -31 -9 -11 21 18 27 46 34 46 10z m232 -125 c2 -17 15
-31 37 -42 61 -30 67 -75 9 -63 -23 6 -29 4 -26 -6 3 -8 12 -13 20 -11 9 1 18
-4 22 -13 4 -11 -2 -15 -24 -15 -36 0 -39 -17 -5 -30 14 -5 25 -17 25 -26 0
-9 9 -18 20 -21 28 -7 25 -14 -15 -42 -44 -30 -129 -45 -156 -28 -17 10 -23 8
-40 -15 -11 -16 -40 -33 -69 -43 -27 -9 -59 -28 -70 -43 -48 -60 -154 -75
-187 -26 -16 25 -16 27 21 87 23 38 150 147 170 147 16 0 66 67 76 100 14 50
-31 54 -50 5 -7 -18 -17 -25 -35 -25 -34 0 -31 10 14 44 22 16 42 39 45 51 4
16 15 24 36 27 38 6 45 -5 30 -43 -17 -41 -1 -58 33 -36 43 28 57 48 57 81 0
46 18 61 40 33 10 -13 20 -34 22 -47z m2175 30 c176 2 181 2 189 -11 10 -16
-11 -32 -64 -46 -75 -20 -103 -24 -169 -24 -34 1 -65 -4 -68 -9 -11 -18 -25
-10 -38 23 l-14 32 -8 -25 c-12 -39 -27 -42 -47 -9 -22 36 -22 39 -3 39 8 0
25 11 37 25 16 18 25 22 34 14 8 -6 67 -10 151 -9z m-257 -5 c19 -23 11 -25
-42 -11 -64 16 -70 26 -16 26 29 0 50 -6 58 -15z m-1441 -161 c20 -14 21 -18
8 -25 -19 -11 -62 4 -70 25 -9 22 31 21 62 0z"/>
<path d="M4550 10835 c0 -28 15 -34 24 -9 10 25 7 34 -9 34 -9 0 -15 -9 -15
-25z"/>
<path d="M10130 8465 c0 -8 5 -15 10 -15 6 0 10 7 10 15 0 8 -4 15 -10 15 -5
0 -10 -7 -10 -15z"/>
<path d="M10116 8427 c-17 -13 -17 -15 -2 -45 18 -35 37 -40 56 -17 8 10 9 23
3 42 -11 32 -31 39 -57 20z"/>
<path d="M9930 8226 c0 -30 3 -37 18 -34 20 4 18 35 -4 58 -12 12 -14 9 -14
-24z"/>
<path d="M9857 8153 c-13 -12 -7 -23 13 -23 11 0 20 7 20 15 0 15 -21 21 -33
8z"/>
<path d="M9900 8096 c0 -9 5 -16 10 -16 6 0 10 4 10 9 0 6 -4 13 -10 16 -5 3
-10 -1 -10 -9z"/>
<path d="M9880 7860 c0 -11 5 -20 10 -20 6 0 10 9 10 20 0 11 -4 20 -10 20 -5
0 -10 -9 -10 -20z"/>
<path d="M6330 8175 c0 -21 30 -31 41 -14 14 23 11 29 -16 29 -16 0 -25 -6
-25 -15z"/>
<path d="M6285 8060 c3 -5 8 -10 11 -10 2 0 4 5 4 10 0 6 -5 10 -11 10 -5 0
-7 -4 -4 -10z"/>
<path d="M11761 6744 c0 -11 3 -14 6 -6 3 7 2 16 -1 19 -3 4 -6 -2 -5 -13z"/>
<path d="M6541 5626 c-8 -10 -9 -16 -1 -21 13 -8 30 3 30 21 0 18 -14 18 -29
0z"/>
<path d="M11563 12013 c-7 -2 -13 -16 -13 -29 0 -35 -47 -34 -60 2 -7 16 -16
24 -28 22 -14 -3 -17 -13 -16 -62 1 -32 7 -63 13 -69 14 -14 61 7 61 28 0 17
21 20 36 6 5 -5 20 -11 34 -13 18 -2 28 3 35 20 5 12 13 22 17 22 15 0 8 18
-19 49 -27 31 -36 34 -60 24z"/>
<path d="M11824 12012 c-20 -13 -11 -84 13 -99 18 -12 26 -12 56 0 29 13 35
21 39 53 6 46 -3 54 -57 54 -22 0 -45 -4 -51 -8z"/>
<path d="M12070 12010 c-4 -3 -7 -26 -6 -51 1 -33 -5 -53 -18 -68 -22 -25 -36
-27 -36 -6 0 25 -47 19 -56 -7 -5 -16 -1 -27 16 -40 13 -11 29 -17 36 -14 14
5 32 -20 29 -39 -4 -23 -18 -45 -26 -40 -10 7 -37 -43 -40 -76 -4 -43 1 -57
21 -62 11 -3 20 -13 20 -22 0 -14 -7 -16 -30 -13 -18 3 -35 -1 -41 -8 -8 -10
-16 -11 -31 -3 -24 13 -78 2 -78 -16 0 -17 25 -42 50 -50 28 -9 25 -22 -10
-40 -41 -21 -52 -19 -75 18 -23 36 -64 47 -85 23 -7 -9 -22 -16 -35 -16 -32 0
-62 -36 -49 -58 19 -30 50 -26 64 7 14 34 21 37 53 19 12 -7 30 -13 39 -13 10
0 18 -4 19 -10 3 -29 24 -37 78 -31 61 7 84 21 76 45 -7 25 10 45 34 38 13 -3
34 4 56 19 41 27 62 30 89 9 11 -8 36 -15 55 -16 71 -2 118 -30 71 -42 -23 -6
-27 -37 -5 -37 9 0 18 -13 22 -31 4 -24 10 -29 24 -26 12 3 19 0 19 -9 0 -8 5
-14 10 -14 6 0 10 -20 10 -45 l0 -45 40 2 c22 1 40 2 41 2 0 1 3 69 6 153 5
149 5 151 -17 163 -12 7 -35 9 -51 6 -22 -4 -29 -2 -29 9 0 11 -12 15 -45 15
-25 0 -45 -4 -45 -9 0 -4 -11 -6 -25 -3 -29 5 -30 10 -9 40 9 13 14 29 11 35
-3 7 1 21 9 32 8 10 14 14 14 8 0 -5 19 -15 42 -22 57 -18 100 -22 93 -11 -4
6 5 10 18 10 32 0 37 30 37 212 l0 137 -176 -2 c-97 -1 -179 -4 -184 -7z m225
-71 c10 -15 -3 -59 -18 -59 -7 0 -22 7 -35 15 -18 14 -20 19 -9 35 13 21 52
27 62 9z m-111 -21 c14 -20 14 -24 -1 -40 -19 -22 -36 -23 -52 -4 -10 12 -9
20 4 40 21 32 29 32 49 4z m26 -124 c0 -8 -5 -12 -10 -9 -6 4 -8 11 -5 16 9
14 15 11 15 -7z m-104 -115 c20 -83 18 -108 -6 -102 -11 3 -20 0 -20 -6 0 -21
-19 -11 -46 24 -20 26 -24 39 -16 47 7 7 8 17 1 29 -7 15 -6 17 6 13 9 -4 15
-1 15 7 0 17 31 50 44 46 5 -2 15 -28 22 -58z"/>
<path d="M11312 11988 c5 -32 28 -35 28 -4 0 17 -5 26 -16 26 -10 0 -14 -7
-12 -22z"/>
<path d="M12000 12006 c0 -2 7 -6 15 -10 8 -3 15 -1 15 4 0 6 -7 10 -15 10 -8
0 -15 -2 -15 -4z"/>
<path d="M10335 11970 c3 -5 16 -10 28 -10 18 0 19 2 7 10 -20 13 -43 13 -35
0z"/>
<path d="M10920 11960 c0 -5 5 -10 10 -10 6 0 10 5 10 10 0 6 -4 10 -10 10 -5
0 -10 -4 -10 -10z"/>
<path d="M10185 11951 c-26 -6 -24 -8 24 -14 49 -6 72 -3 60 7 -10 9 -57 13
-84 7z"/>
<path d="M10590 11940 c0 -5 7 -10 15 -10 8 0 15 5 15 10 0 6 -7 10 -15 10 -8
0 -15 -4 -15 -10z"/>
<path d="M10805 11919 c-10 -15 3 -25 16 -12 7 7 7 13 1 17 -6 3 -14 1 -17 -5z"/>
<path d="M11353 11884 c-8 -20 8 -48 31 -52 11 -3 16 4 16 20 0 40 -35 63 -47
32z"/>
<path d="M11246 11864 c-8 -20 1 -34 20 -34 18 0 18 24 0 39 -11 9 -15 8 -20
-5z"/>
<path d="M10905 11849 c-11 -16 1 -22 30 -15 14 4 23 11 20 16 -8 13 -42 13
-50 -1z"/>
<path d="M11592 11851 c4 -13 18 -16 19 -4 0 4 -5 9 -11 12 -7 2 -11 -2 -8 -8z"/>
<path d="M11684 11849 c-10 -17 23 -46 37 -32 7 7 9 19 6 27 -7 18 -33 21 -43
5z"/>
<path d="M11542 11825 c-15 -33 -15 -35 1 -35 19 0 50 37 42 49 -11 19 -31 12
-43 -14z"/>
<path d="M11801 11764 c-24 -44 -35 -52 -46 -34 -3 6 -15 10 -26 10 -26 0 -26
-51 1 -75 22 -20 18 -32 -16 -45 -50 -20 -17 -67 38 -54 18 5 44 8 58 9 34 0
32 26 -2 43 -33 15 -50 43 -39 61 5 7 11 12 15 11 3 -1 25 1 47 5 30 5 44 3
50 -6 6 -10 9 -6 9 12 0 14 -9 34 -20 44 -11 10 -20 24 -20 30 0 7 -6 17 -13
23 -10 8 -18 0 -36 -34z"/>
<path d="M9862 11708 c-37 -48 -15 -83 33 -52 21 14 31 15 45 6 22 -13 30 -6
30 26 0 21 -4 24 -30 20 -17 -3 -33 -1 -36 4 -8 12 -30 10 -42 -4z"/>
<path d="M11631 11661 c-17 -11 -7 -41 14 -41 9 0 15 9 15 25 0 27 -6 30 -29
16z"/>
<path d="M11525 11480 c3 -5 8 -10 11 -10 2 0 4 5 4 10 0 6 -5 10 -11 10 -5 0
-7 -4 -4 -10z"/>
<path d="M11325 11441 c-6 -11 25 -31 47 -31 7 0 20 5 28 10 13 9 13 11 0 20
-19 12 -67 13 -75 1z"/>
<path d="M11730 11361 c0 -11 59 -36 67 -27 3 3 -1 6 -10 6 -9 0 -17 7 -17 15
0 8 -9 15 -20 15 -11 0 -20 -4 -20 -9z"/>
<path d="M12236 11295 c-18 -27 -21 -80 -6 -90 6 -3 10 -1 10 4 0 6 7 11 15
11 11 0 15 12 15 50 0 55 -10 62 -34 25z"/>
<path d="M11908 11253 c-15 -30 -24 -61 -22 -68 7 -18 73 -57 85 -50 5 3 17 1
27 -4 14 -7 25 -6 40 5 38 26 25 51 -24 45 -18 -2 -64 58 -58 74 4 8 10 15 15
15 5 0 9 8 9 18 0 11 -8 17 -23 18 -17 1 -28 -10 -49 -53z"/>
<path d="M10772 11248 c-19 -19 -14 -34 14 -47 33 -15 40 -8 28 26 -11 31 -25
38 -42 21z"/>
<path d="M11500 11232 c0 -11 14 -25 34 -35 32 -15 34 -15 39 3 6 23 -22 50
-51 50 -15 0 -22 -6 -22 -18z"/>
<path d="M10716 11233 c-11 -11 -6 -23 9 -23 8 0 15 4 15 9 0 13 -16 22 -24
14z"/>
<path d="M12360 11207 c-37 -19 -36 -42 4 -61 46 -22 55 -20 62 11 13 49 -20
74 -66 50z"/>
<path d="M12270 11181 c0 -21 26 -36 36 -20 6 11 -13 39 -27 39 -5 0 -9 -9 -9
-19z"/>
<path d="M1927 11174 c-10 -10 -8 -46 3 -64 7 -11 11 -8 20 15 8 22 8 31 -3
42 -7 7 -16 10 -20 7z"/>
<path d="M11650 11165 c0 -8 5 -15 10 -15 6 0 10 7 10 15 0 8 -4 15 -10 15 -5
0 -10 -7 -10 -15z"/>
<path d="M11838 11149 c-10 -6 -18 -19 -18 -29 0 -27 37 -26 45 1 9 27 -5 41
-27 28z"/>
<path d="M10818 11143 c7 -3 16 -2 19 1 4 3 -2 6 -13 5 -11 0 -14 -3 -6 -6z"/>
<path d="M9220 11129 c0 -5 5 -7 10 -4 6 3 10 8 10 11 0 2 -4 4 -10 4 -5 0
-10 -5 -10 -11z"/>
<path d="M12041 11116 c-11 -13 -6 -46 8 -46 4 0 17 7 30 17 23 15 23 17 6 30
-24 16 -30 16 -44 -1z"/>
<path d="M11773 11100 c-3 -11 -8 -18 -12 -16 -3 2 -17 -7 -30 -20 -22 -20
-23 -24 -8 -30 19 -7 66 41 67 69 0 23 -11 22 -17 -3z"/>
<path d="M12124 11105 c-3 -7 -2 -21 3 -29 7 -14 12 -13 37 3 l28 18 -32 11
c-25 9 -32 8 -36 -3z"/>
<path d="M1936 11055 c4 -8 7 -15 9 -15 2 0 5 7 9 15 3 9 0 15 -9 15 -9 0 -12
-6 -9 -15z"/>
<path d="M11890 11035 c0 -9 6 -12 15 -9 8 4 15 10 15 15 0 5 -7 9 -15 9 -8 0
-15 -7 -15 -15z"/>
<path d="M11606 11031 c-9 -14 4 -41 20 -41 8 0 14 6 14 14 0 18 -26 40 -34
27z"/>
<path d="M11531 11004 c0 -11 3 -14 6 -6 3 7 2 16 -1 19 -3 4 -6 -2 -5 -13z"/>
<path d="M12230 10955 c7 -8 16 -15 21 -15 5 0 6 7 3 15 -4 8 -13 15 -21 15
-13 0 -13 -3 -3 -15z"/>
<path d="M3211 10894 c0 -11 3 -14 6 -6 3 7 2 16 -1 19 -3 4 -6 -2 -5 -13z"/>
<path d="M11621 10874 c0 -11 3 -14 6 -6 3 7 2 16 -1 19 -3 4 -6 -2 -5 -13z"/>
<path d="M11550 10820 c0 -40 13 -53 24 -25 5 15 -9 65 -19 65 -3 0 -5 -18 -5
-40z"/>
<path d="M3250 10842 c0 -18 32 -51 52 -54 13 -2 28 -14 34 -26 20 -40 32 -48
48 -32 19 20 3 60 -24 60 -11 0 -20 4 -20 8 0 18 -42 52 -65 52 -14 0 -25 -3
-25 -8z"/>
<path d="M11484 10819 c-3 -6 -1 -16 5 -22 8 -8 11 -5 11 11 0 24 -5 28 -16
11z"/>
<path d="M12323 10746 c-13 -6 -27 -23 -33 -39 -5 -16 -19 -31 -30 -34 -11 -3
-20 -9 -20 -14 0 -5 -5 -9 -11 -9 -5 0 -7 5 -4 10 3 6 1 10 -4 10 -6 0 -11 -9
-11 -20 0 -11 2 -20 5 -20 9 0 49 24 78 48 16 12 34 22 41 22 7 0 20 6 30 13
16 12 16 13 -1 28 -14 12 -23 13 -40 5z"/>
<path d="M11630 10709 c-14 -25 -6 -49 14 -49 21 0 29 17 22 46 -8 29 -22 31
-36 3z"/>
<path d="M12405 10632 c-6 -4 -15 -16 -21 -27 -6 -11 -17 -20 -25 -20 -34 -1
-59 -17 -59 -40 0 -19 7 -24 45 -29 26 -4 49 -14 54 -24 15 -26 21 -11 25 66
4 71 0 87 -19 74z"/>
<path d="M12051 10596 c-7 -9 -8 -17 -2 -20 14 -9 41 4 41 20 0 18 -24 18 -39
0z"/>
<path d="M12258 10429 c-25 -14 -22 -23 11 -36 32 -12 46 1 35 32 -7 17 -22
19 -46 4z"/>
<path d="M12362 10373 c-5 -10 -6 -29 -2 -43 5 -21 7 -22 13 -7 3 9 16 17 27
17 20 0 20 1 6 16 -9 8 -16 20 -16 25 0 15 -19 10 -28 -8z"/>
<path d="M12215 10270 c3 -5 10 -10 16 -10 5 0 9 5 9 10 0 6 -7 10 -16 10 -8
0 -12 -4 -9 -10z"/>
<path d="M4187 10134 c-8 -8 1 -24 14 -24 5 0 9 7 9 15 0 15 -12 20 -23 9z"/>
<path d="M3443 10018 c-26 -12 -29 -30 -10 -46 19 -16 79 13 75 35 -4 21 -34
26 -65 11z"/>
<path d="M3393 9979 c-7 -7 -13 -21 -13 -30 0 -18 -49 -52 -92 -62 -30 -8 -41
-45 -26 -89 8 -21 7 -33 -1 -41 -9 -9 -19 -4 -41 23 -22 27 -31 32 -41 23 -9
-9 -8 -17 4 -37 19 -29 13 -53 -19 -79 -13 -9 -24 -27 -26 -39 -2 -17 -17 -26
-65 -41 -41 -13 -63 -25 -66 -38 -3 -11 -14 -19 -26 -19 -28 0 -37 -25 -17
-45 9 -9 16 -22 16 -29 0 -20 -56 -93 -86 -113 -26 -17 -27 -16 -51 12 -20 22
-23 35 -18 62 5 28 3 33 -14 33 -19 0 -61 -58 -61 -84 0 -43 -74 -114 -105
-102 -17 6 -37 -17 -69 -81 -25 -50 -54 -77 -108 -101 -16 -6 -28 -18 -28 -25
0 -8 -9 -22 -20 -32 -23 -21 -25 -43 -8 -80 14 -31 19 -31 48 0 15 16 30 23
42 19 24 -7 23 13 -2 26 -23 12 -27 30 -7 30 8 0 22 9 32 20 14 15 22 17 37 9
28 -15 60 -2 53 22 -4 11 -2 25 3 32 6 7 18 36 27 65 l18 54 66 -2 c99 -3 106
-2 137 25 16 14 37 25 46 25 32 0 48 12 48 36 0 17 6 24 19 24 14 0 22 11 30
43 6 23 14 47 18 53 9 12 50 24 98 28 67 6 108 66 45 66 -16 0 -30 5 -30 11 0
6 9 8 20 4 13 -4 22 -1 26 9 4 11 13 14 31 10 24 -6 25 -5 18 24 -8 40 33 120
74 143 24 14 32 15 61 3 18 -8 39 -14 46 -14 24 0 15 30 -11 40 -43 16 -31 40
20 40 49 0 55 8 25 35 -18 17 -21 17 -45 1 -25 -16 -25 -16 -25 13 0 31 21 46
38 29 6 -6 15 -7 21 -4 18 12 12 49 -12 79 -18 22 -24 26 -34 16z"/>
<path d="M2555 9950 c3 -5 13 -10 21 -10 8 0 14 5 14 10 0 6 -9 10 -21 10 -11
0 -17 -4 -14 -10z"/>
<path d="M2000 9810 c0 -5 5 -10 10 -10 6 0 10 5 10 10 0 6 -4 10 -10 10 -5 0
-10 -4 -10 -10z"/>
<path d="M1994 9765 c-4 -8 -3 -23 0 -32 6 -15 8 -15 22 -2 8 9 12 23 8 32 -8
21 -23 22 -30 2z"/>
<path d="M4323 9720 c-32 -13 -29 -22 5 -16 15 2 31 5 35 5 5 1 5 6 2 11 -7
12 -13 12 -42 0z"/>
<path d="M4770 9720 c0 -5 5 -10 10 -10 6 0 10 5 10 10 0 6 -4 10 -10 10 -5 0
-10 -4 -10 -10z"/>
<path d="M4860 9665 c0 -37 13 -46 28 -19 12 22 4 54 -14 54 -9 0 -14 -12 -14
-35z"/>
<path d="M4921 9676 c-8 -10 -9 -16 -1 -21 17 -10 12 -39 -11 -58 -16 -15 -18
-21 -9 -33 16 -19 29 -18 37 4 4 9 17 31 30 48 33 44 31 74 -6 74 -16 0 -34
-6 -40 -14z"/>
<path d="M4530 9640 c0 -5 5 -10 10 -10 6 0 10 5 10 10 0 6 -4 10 -10 10 -5 0
-10 -4 -10 -10z"/>
<path d="M1584 9595 c-8 -20 0 -120 10 -120 5 0 10 15 11 33 3 40 6 44 40 46
20 1 25 6 23 21 -4 24 -76 41 -84 20z"/>
<path d="M4660 9580 c0 -5 5 -10 11 -10 5 0 7 5 4 10 -3 6 -8 10 -11 10 -2 0
-4 -4 -4 -10z"/>
<path d="M1673 9537 c-4 -28 -11 -39 -28 -43 l-22 -5 29 -55 c16 -30 32 -54
34 -54 11 0 24 53 16 64 -14 18 -20 53 -12 66 5 7 20 13 35 14 27 1 56 29 43
42 -4 3 -25 7 -48 7 -40 2 -41 1 -47 -36z"/>
<path d="M4977 9533 c-4 -3 -7 -17 -7 -30 0 -16 6 -23 20 -23 16 0 20 -7 20
-30 0 -30 21 -42 35 -20 9 15 -4 50 -19 50 -8 0 -16 14 -19 30 -6 29 -17 37
-30 23z"/>
<path d="M3963 9495 c0 -8 9 -15 20 -15 10 0 17 5 15 13 -7 18 -35 20 -35 2z"/>
<path d="M3730 9479 c0 -5 5 -7 10 -4 6 3 10 8 10 11 0 2 -4 4 -10 4 -5 0 -10
-5 -10 -11z"/>
<path d="M3260 9420 c-8 -16 -8 -20 4 -20 16 0 29 27 16 35 -5 3 -14 -4 -20
-15z"/>
<path d="M3177 9409 c-9 -6 -17 -14 -17 -19 0 -16 37 -11 43 5 8 19 -4 26 -26
14z"/>
<path d="M4880 9371 c0 -24 13 -33 34 -25 21 8 21 30 0 38 -26 10 -34 7 -34
-13z"/>
<path d="M5080 9360 c-8 -5 -12 -12 -9 -15 4 -3 12 1 19 10 14 17 11 19 -10 5z"/>
<path d="M3260 9205 c0 -8 7 -15 16 -15 14 0 14 3 4 15 -7 8 -14 15 -16 15 -2
0 -4 -7 -4 -15z"/>
<path d="M2790 9174 c0 -8 5 -12 10 -9 6 4 8 11 5 16 -9 14 -15 11 -15 -7z"/>
<path d="M3300 9171 c0 -6 11 -16 25 -21 14 -5 28 -17 31 -25 10 -25 26 -17
22 13 -2 22 -7 27 -27 24 -13 -1 -30 3 -37 9 -11 9 -14 9 -14 0z"/>
<path d="M3418 9106 c-33 -12 -35 -21 -10 -35 13 -7 23 -6 30 1 15 15 15 7 2
-27 -13 -33 10 -44 45 -21 29 19 35 66 8 66 -9 0 -24 6 -32 13 -12 10 -23 11
-43 3z"/>
<path d="M4450 9030 c30 -23 40 -25 40 -6 0 15 -21 26 -48 26 -13 0 -11 -5 8
-20z"/>
<path d="M3432 8960 c2 -17 8 -24 19 -22 10 1 35 -16 58 -38 22 -22 45 -40 51
-40 18 0 11 22 -14 41 -14 11 -28 29 -31 40 -5 16 -13 20 -33 16 -17 -3 -31 1
-39 11 -12 15 -13 14 -11 -8z"/>
<path d="M1587 8963 c-15 -15 -5 -32 24 -42 40 -14 39 -14 39 3 0 8 -10 22
-22 30 -25 18 -32 19 -41 9z"/>
<path d="M4209 8904 c-11 -14 -10 -16 9 -12 13 1 23 7 23 13 1 17 -17 16 -32
-1z"/>
<path d="M2697 8893 c-9 -9 -9 -53 1 -53 19 1 31 18 25 38 -5 22 -14 27 -26
15z"/>
<path d="M1750 8875 c0 -8 5 -15 10 -15 6 0 10 7 10 15 0 8 -4 15 -10 15 -5 0
-10 -7 -10 -15z"/>
<path d="M5752 8814 c2 -26 8 -40 19 -42 22 -4 30 20 16 48 -21 41 -39 37 -35
-6z"/>
<path d="M1911 8835 c1 -17 59 -57 74 -51 29 11 17 36 -18 36 -18 0 -38 5 -45
12 -7 7 -12 8 -11 3z"/>
<path d="M2010 8810 c0 -6 11 -10 25 -10 14 0 25 4 25 8 0 4 -11 9 -25 10 -14
1 -25 -3 -25 -8z"/>
<path d="M2285 8790 c-9 -15 14 -40 36 -40 24 0 24 12 1 33 -22 20 -28 21 -37
7z"/>
<path d="M5784 8737 c-8 -21 2 -35 16 -21 5 5 6 15 0 24 -8 12 -10 12 -16 -3z"/>
<path d="M4500 8576 c-5 -5 -37 -12 -72 -15 -60 -6 -63 -7 -66 -33 -3 -27 -1
-28 37 -28 30 0 44 5 53 20 7 11 20 20 28 20 8 0 23 7 34 15 16 12 22 12 43
-2 20 -13 28 -14 48 -3 14 7 25 17 25 21 0 19 -111 24 -130 5z"/>
<path d="M2365 8480 c3 -5 11 -10 16 -10 6 0 7 5 4 10 -3 6 -11 10 -16 10 -6
0 -7 -4 -4 -10z"/>
<path d="M2490 8456 c0 -9 5 -16 10 -16 6 0 10 4 10 9 0 6 -4 13 -10 16 -5 3
-10 -1 -10 -9z"/>
<path d="M2727 8438 c-9 -32 3 -43 20 -19 14 20 11 41 -6 41 -5 0 -11 -10 -14
-22z"/>
<path d="M2530 8440 c0 -5 12 -10 28 -10 21 0 24 2 12 10 -20 13 -40 13 -40 0z"/>
<path d="M2640 8434 c0 -9 5 -14 12 -12 18 6 21 28 4 28 -9 0 -16 -7 -16 -16z"/>
<path d="M3890 8335 c0 -31 3 -35 25 -35 14 0 34 -9 45 -20 11 -11 26 -20 34
-20 23 0 29 19 9 26 -43 14 -60 27 -70 55 -16 42 -43 38 -43 -6z"/>
<path d="M2830 8350 c0 -5 5 -10 10 -10 6 0 10 5 10 10 0 6 -4 10 -10 10 -5 0
-10 -4 -10 -10z"/>
<path d="M5948 8299 c-28 -16 -21 -36 13 -41 29 -5 49 12 49 41 0 14 -39 14
-62 0z"/>
<path d="M3778 8278 c-3 -7 -3 -18 -1 -25 6 -16 55 5 50 21 -5 16 -44 19 -49
4z"/>
<path d="M5877 8253 c-3 -5 0 -30 6 -56 13 -57 36 -64 35 -9 -1 20 1 44 3 52
4 16 -35 27 -44 13z"/>
<path d="M5798 8223 c7 -3 16 -2 19 1 4 3 -2 6 -13 5 -11 0 -14 -3 -6 -6z"/>
<path d="M5820 8125 c0 -17 2 -18 24 -9 23 9 20 24 -4 24 -11 0 -20 -7 -20
-15z"/>
<path d="M5595 8030 c3 -5 8 -10 11 -10 2 0 4 5 4 10 0 6 -5 10 -11 10 -5 0
-7 -4 -4 -10z"/>
<path d="M4014 7996 c-4 -10 -2 -22 4 -28 8 -8 13 -7 18 6 4 10 2 22 -4 28 -8
8 -13 7 -18 -6z"/>
<path d="M4280 7942 c0 -13 4 -21 9 -18 5 4 11 0 14 -6 2 -7 7 -10 11 -7 4 3
-2 17 -13 30 l-20 24 -1 -23z"/>
<path d="M5653 7868 c-32 -42 -13 -71 40 -61 32 6 34 21 7 51 -24 25 -34 27
-47 10z"/>
<path d="M12386 7865 c-9 -9 -14 -20 -11 -25 3 -4 -2 -11 -11 -14 -24 -9 -26
-8 -22 17 2 17 -2 22 -21 22 -22 0 -23 -3 -23 -63 0 -35 2 -66 6 -69 3 -3 20
-6 38 -5 18 0 41 -7 51 -16 28 -25 38 0 35 87 -3 78 -13 94 -42 66z"/>
<path d="M5906 7835 c4 -8 8 -15 10 -15 2 0 4 7 4 15 0 8 -4 15 -10 15 -5 0
-7 -7 -4 -15z"/>
<path d="M5540 7800 c0 -5 4 -10 9 -10 6 0 13 5 16 10 3 6 -1 10 -9 10 -9 0
-16 -4 -16 -10z"/>
<path d="M5500 7779 c0 -11 46 -59 56 -59 10 0 2 19 -19 43 -24 29 -37 34 -37
16z"/>
<path d="M12214 7689 c-3 -6 -2 -15 3 -20 13 -13 43 -1 43 17 0 16 -36 19 -46
3z"/>
<path d="M6438 7605 c-34 -35 -50 -45 -75 -45 -46 0 -44 -27 2 -36 20 -3 40
-15 46 -25 5 -11 21 -19 37 -20 44 -1 63 -12 52 -29 -16 -24 -13 -47 3 -26 16
21 57 14 57 -10 0 -17 22 -18 38 -2 9 9 3 17 -26 33 -48 27 -52 53 -12 99 36
41 35 72 -2 61 -38 -12 -42 -11 -46 12 -6 38 -30 34 -74 -12z"/>
<path d="M5761 7614 c0 -11 3 -14 6 -6 3 7 2 16 -1 19 -3 4 -6 -2 -5 -13z"/>
<path d="M12120 7600 c0 -5 4 -10 9 -10 6 0 13 5 16 10 3 6 -1 10 -9 10 -9 0
-16 -4 -16 -10z"/>
<path d="M6652 7588 c-7 -7 -12 -17 -12 -23 0 -6 -11 -22 -25 -35 -28 -27 -33
-58 -9 -67 19 -7 34 13 34 45 0 15 6 22 20 22 21 0 45 43 34 61 -7 13 -28 11
-42 -3z"/>
<path d="M5718 7582 c-34 -4 -36 -19 -5 -31 24 -10 41 0 35 20 -2 9 -14 13
-30 11z"/>
<path d="M5934 7527 c-9 -25 0 -90 14 -95 8 -2 12 11 12 47 0 49 -15 76 -26
48z"/>
<path d="M7568 7466 c-14 -12 -33 -26 -43 -30 -25 -9 -13 -29 21 -32 16 -1 42
-4 57 -7 30 -5 57 14 57 38 0 17 -39 55 -55 55 -7 0 -23 -11 -37 -24z"/>
<path d="M3760 7451 c0 -20 17 -37 27 -28 7 8 -7 47 -18 47 -5 0 -9 -9 -9 -19z"/>
<path d="M7765 7451 c-11 -5 -23 -7 -27 -5 -4 3 -10 -5 -13 -17 -11 -34 -38
-59 -63 -59 -15 0 -26 -7 -29 -20 -4 -14 -14 -20 -34 -20 -24 0 -29 -4 -29
-24 0 -13 6 -28 13 -34 7 -6 14 -25 15 -43 3 -40 12 -52 12 -16 0 28 29 97 41
97 14 0 30 -28 19 -35 -12 -8 -13 -62 -1 -70 10 -6 26 32 23 53 -2 7 7 12 21
12 16 0 28 -9 37 -27 l13 -28 10 30 c5 17 18 42 28 56 16 22 16 28 5 32 -19 7
-16 85 3 96 15 10 7 31 -12 30 -7 0 -21 -4 -32 -8z m-57 -142 c-18 -12 -23 8
-6 28 12 15 13 15 16 -2 2 -10 -2 -21 -10 -26z"/>
<path d="M6390 7440 c0 -5 5 -10 10 -10 6 0 10 5 10 10 0 6 -4 10 -10 10 -5 0
-10 -4 -10 -10z"/>
<path d="M6641 7436 c-8 -10 -8 -16 2 -25 16 -13 27 -5 27 21 0 21 -13 23 -29
4z"/>
<path d="M7822 7408 c-16 -16 -15 -30 2 -62 13 -25 15 -26 30 -11 17 17 20 42
10 69 -7 19 -25 21 -42 4z"/>
<path d="M7537 7363 c-14 -13 -6 -23 18 -23 16 0 25 6 25 15 0 15 -31 21 -43
8z"/>
<path d="M7448 7309 c-29 -16 -22 -41 10 -37 19 2 28 9 30 26 4 24 -11 28 -40
11z"/>
<path d="M7503 7264 c-7 -18 6 -45 26 -52 9 -3 11 6 9 29 -3 36 -24 50 -35 23z"/>
<path d="M7410 7220 c10 -19 40 -28 40 -12 0 13 -23 32 -37 32 -11 0 -11 -5
-3 -20z"/>
<path d="M7036 7079 c-9 -18 -15 -33 -14 -33 2 -1 13 -7 26 -14 21 -12 22 -10
22 20 0 54 -15 65 -34 27z"/>
<path d="M7080 6971 c0 -11 5 -23 10 -26 6 -3 10 3 10 14 0 11 -4 23 -10 26
-5 3 -10 -3 -10 -14z"/>
<path d="M4115 6667 c-4 -10 -5 -21 -1 -24 10 -10 18 4 13 24 -4 17 -4 17 -12
0z"/>
<path d="M7070 6220 c0 -5 7 -10 15 -10 8 0 15 5 15 10 0 6 -7 10 -15 10 -8 0
-15 -4 -15 -10z"/>
<path d="M2395 6130 c-3 -5 1 -10 10 -10 9 0 13 5 10 10 -3 6 -8 10 -10 10 -2
0 -7 -4 -10 -10z"/>
<path d="M2435 6120 c3 -5 19 -10 36 -10 16 0 29 5 29 10 0 6 -16 10 -36 10
-21 0 -33 -4 -29 -10z"/>
<path d="M8175 6081 c-3 -5 -1 -12 5 -16 5 -3 10 1 10 9 0 18 -6 21 -15 7z"/>
<path d="M2340 6050 c0 -13 7 -20 19 -20 11 0 23 -4 26 -10 11 -18 62 -10 88
14 l25 23 -60 7 c-92 9 -98 8 -98 -14z"/>
<path d="M2785 6060 c3 -5 15 -10 26 -10 11 0 17 5 14 10 -3 6 -15 10 -26 10
-11 0 -17 -4 -14 -10z"/>
<path d="M2520 6050 c0 -5 5 -10 10 -10 6 0 10 5 10 10 0 6 -4 10 -10 10 -5 0
-10 -4 -10 -10z"/>
<path d="M7470 5890 c0 -5 9 -10 20 -10 11 0 20 5 20 10 0 6 -9 10 -20 10 -11
0 -20 -4 -20 -10z"/>
<path d="M12015 5880 c-3 -5 -1 -10 4 -10 6 0 11 5 11 10 0 6 -2 10 -4 10 -3
0 -8 -4 -11 -10z"/>
<path d="M4600 5744 c0 -8 5 -12 10 -9 6 4 8 11 5 16 -9 14 -15 11 -15 -7z"/>
<path d="M8356 5605 c-15 -14 -33 -25 -41 -25 -7 0 -15 -4 -17 -9 -1 -4 -28
-24 -58 -43 -30 -20 -91 -72 -135 -118 -44 -45 -101 -104 -127 -130 -27 -26
-48 -52 -48 -57 0 -10 -26 -33 -64 -58 -14 -10 -26 -23 -26 -29 0 -7 -13 -25
-30 -41 -35 -33 -37 -46 -12 -68 27 -24 45 -21 64 11 9 15 56 70 103 122 48
52 100 113 116 136 16 24 39 51 52 61 13 10 48 46 78 79 30 34 85 87 122 119
62 53 79 75 58 75 -4 0 -20 -11 -35 -25z"/>
<path d="M5855 5250 c3 -5 8 -10 11 -10 2 0 4 5 4 10 0 6 -5 10 -11 10 -5 0
-7 -4 -4 -10z"/>
<path d="M6893 5155 c4 -5 15 -10 25 -11 9 0 31 -5 47 -9 23 -6 27 -5 19 4 -6
7 -31 15 -55 18 -24 3 -41 2 -36 -2z"/>
<path d="M7000 5121 c0 -11 39 -26 47 -17 8 8 3 12 -24 20 -13 4 -23 3 -23 -3z"/>
<path d="M7090 5120 c0 -5 5 -10 10 -10 6 0 10 5 10 10 0 6 -4 10 -10 10 -5 0
-10 -4 -10 -10z"/>
<path d="M6120 5062 c0 -25 21 -62 35 -62 23 0 18 24 -10 50 -14 13 -25 18
-25 12z"/>
<path d="M6270 4900 c0 -5 5 -10 10 -10 6 0 10 5 10 10 0 6 -4 10 -10 10 -5 0
-10 -4 -10 -10z"/>
</g>
</svg>
